<svg width="196" height="50" viewBox="0 0 196 50" fill="none" xmlns="http://www.w3.org/2000/svg">
<path d="M36.9525 49.8272L36.7716 49.7757C35.7993 49.4944 34.7942 49.2131 33.8135 48.8381C33.4676 48.705 33.1169 48.5887 32.7456 48.4631C32.3743 48.3374 32.0106 48.2184 31.6412 48.0777C30.637 47.6971 29.6526 47.293 28.8219 46.9479C28.4028 46.7736 27.9875 46.587 27.5852 46.407C27.3527 46.3029 27.1164 46.1988 26.8867 46.0966C26.6917 46.0113 26.4948 45.9279 26.2989 45.8454C25.9726 45.7075 25.636 45.5641 25.3032 45.4113C24.9282 45.2378 24.5531 45.0541 24.1968 44.8769C23.9868 44.7728 23.7768 44.6687 23.5668 44.5675L22.6292 44.1193C22.258 43.9424 21.8873 43.7646 21.5173 43.5858C20.9454 43.3045 20.3762 43.0233 19.8296 42.7504L19.7659 42.7176C19.2033 42.4364 18.6183 42.1466 18.0464 41.8532C17.842 41.7491 17.6432 41.6404 17.4501 41.5344C17.3132 41.4594 17.1754 41.3844 17.0376 41.3113C16.7113 41.1397 16.3813 40.97 16.0578 40.7994L15.3743 40.4431L13.9089 39.6752L13.4045 39.4089C12.8822 39.1352 12.3422 38.852 11.8106 38.5651C11.5293 38.4142 11.2537 38.2576 10.9846 38.1067C10.7502 37.9735 10.5158 37.8413 10.2786 37.7129C9.90358 37.5097 9.52855 37.3085 9.15352 37.1091C8.79537 36.915 8.43534 36.7209 8.07063 36.524C7.73966 36.344 7.41433 36.1612 7.08243 35.9774C6.86303 35.8546 6.6427 35.7318 6.42613 35.6108L5.58231 35.1421C5.23291 34.9508 4.88413 34.7592 4.53598 34.5673C4.1197 34.3367 3.70373 34.1051 3.28807 33.8726L1.93328 33.1225C1.70077 32.9941 1.4645 32.8694 1.23198 32.7475L0.841014 32.5375C0.78851 32.5093 0.736943 32.4793 0.679751 32.4437L0.252219 32.1971C0.191661 32.1621 0.139042 32.1149 0.0976918 32.0584C0.0563421 32.002 0.0271635 31.9376 0.012004 31.8692C-0.00315556 31.8009 -0.00396565 31.7302 0.00962497 31.6616C0.0232156 31.593 0.0509108 31.5279 0.0909566 31.4705L0.335663 31.1321C1.09697 30.077 1.82796 29.0647 2.52864 28.0953C9.5323 18.338 13.7626 12.4519 22.0086 6.71864C28.4206 2.26049 35.0774 3.46177e-06 41.7913 3.46177e-06C44.3308 -0.00119223 46.8609 0.307359 49.3256 0.918823C50.1198 1.11665 50.0851 1.03039 50.1854 1.90327C50.221 2.21361 50.2482 2.52395 50.2791 2.83428L50.3054 3.07618C50.3479 3.47683 50.391 3.87686 50.4348 4.27627L50.4723 4.63161C50.5032 4.92319 50.5342 5.21478 50.566 5.50636C50.6064 5.84764 50.6495 6.18891 50.6926 6.53019L50.7939 7.344C50.8539 7.82122 50.9129 8.29845 50.9758 8.77567C51.018 9.09538 51.063 9.41509 51.1089 9.73481C51.1314 9.89138 51.153 10.047 51.1755 10.2036C51.1905 10.3095 51.2195 10.5374 51.2495 10.7661C51.2795 10.9949 51.3067 11.2096 51.3227 11.3287L51.6593 13.7589L49.8526 12.0984C46.4961 9.00777 42.0993 7.2937 37.5366 7.29712C27.4915 7.29712 19.3187 15.469 19.3187 25.5151C19.3187 35.5611 27.4915 43.733 37.5366 43.733C38.667 43.7328 39.795 43.6283 40.9062 43.4208L43.2502 42.982L41.7501 44.8403C41.4688 45.1891 41.1163 45.6203 40.7459 46.0741C40.0681 46.9058 39.2993 47.848 38.8286 48.4546C38.6251 48.7218 38.4376 48.9928 38.2314 49.2844L38.146 49.4053C37.5413 50.1863 37.8629 50.0485 36.9525 49.8272Z" fill="#1DC8BE"/>
<path d="M48.2726 35.2769H27.331C27.2647 35.2769 27.211 35.3306 27.211 35.3969V37.9067C27.211 37.973 27.2647 38.0268 27.331 38.0268H48.2726C48.3389 38.0268 48.3926 37.973 48.3926 37.9067V35.3969C48.3926 35.3306 48.3389 35.2769 48.2726 35.2769Z" fill="#ECF2F5"/>
<path d="M34.6844 31.6846H27.331C27.2647 31.6846 27.211 31.7383 27.211 31.8046V34.3145C27.211 34.3807 27.2647 34.4345 27.331 34.4345H34.6844C34.7507 34.4345 34.8044 34.3807 34.8044 34.3145V31.8046C34.8044 31.7383 34.7507 31.6846 34.6844 31.6846Z" fill="#ECF2F5"/>
<path d="M48.2717 31.6846H40.9183C40.852 31.6846 40.7983 31.7383 40.7983 31.8046V34.3145C40.7983 34.3807 40.852 34.4345 40.9183 34.4345H48.2717C48.338 34.4345 48.3917 34.3807 48.3917 34.3145V31.8046C48.3917 31.7383 48.338 31.6846 48.2717 31.6846Z" fill="#ECF2F5"/>
<path d="M48.2726 28.0946H39.1163V27.0736C39.5016 27.0586 39.8748 27.0642 40.2414 27.0267C41.0908 26.9395 41.9421 26.8617 42.7841 26.7248C43.776 26.5626 44.7426 26.2888 45.6324 25.8022C46.7275 25.2041 47.501 24.3677 47.6707 23.0692C47.7766 22.2648 47.5947 21.5691 47.0144 20.9878C46.4612 20.4318 45.7955 20.0568 45.082 19.7464C43.6401 19.1164 42.1203 18.7414 40.5817 18.4338C40.0923 18.3401 39.6001 18.2463 39.1097 18.1526V15.4467C39.3713 15.4908 39.6151 15.5208 39.8532 15.5724C40.6445 15.7411 41.2905 16.1077 41.6271 16.8944C41.653 16.9245 41.6853 16.9486 41.7216 16.9648C41.7579 16.981 41.7974 16.989 41.8371 16.9881C43.596 16.9937 45.3549 16.9881 47.1138 16.9956C47.2863 16.9956 47.3322 16.9375 47.3153 16.7809C47.2787 16.3034 47.1317 15.8409 46.8859 15.4299C46.4818 14.7886 45.8996 14.3545 45.2377 14.017C44.3679 13.5799 43.4354 13.2807 42.4737 13.13C41.6871 13.0006 40.8967 12.8984 40.1064 12.7934C39.782 12.7503 39.4501 12.7334 39.09 12.6997V11.5089C38.6625 11.4152 36.2557 11.4283 35.996 11.5268V12.6987C35.5273 12.7569 35.0753 12.7972 34.63 12.8703C33.8621 12.9969 33.0924 13.1178 32.333 13.2875C31.3813 13.5003 30.4578 13.8163 29.6243 14.3376C29.1198 14.6355 28.6921 15.0475 28.3755 15.5405C28.0361 16.089 27.9901 16.6965 27.9826 17.3144C27.9768 17.8474 28.164 18.3646 28.5095 18.7704C28.8432 19.1653 29.2509 19.4912 29.7096 19.7296C31.0644 20.4712 32.5458 20.8153 34.0459 21.0937C34.6891 21.2128 35.336 21.3066 35.982 21.4116V24.4652C35.6069 24.3574 35.2488 24.2777 34.9085 24.154C34.4087 23.974 33.9549 23.7086 33.7112 23.2089C33.6024 22.9858 33.5593 22.7298 33.4833 22.4785H27.6217C27.6498 23.4077 27.9507 24.2093 28.578 24.875C29.2577 25.595 30.1165 26.0169 31.041 26.3207C32.4473 26.7839 33.9099 26.9639 35.3866 27.0304C35.5882 27.0398 35.7898 27.0633 35.9867 27.0801V28.0946H27.331C27.2992 28.0946 27.2687 28.1072 27.2461 28.1297C27.2236 28.1522 27.211 28.1828 27.211 28.2146V30.7198C27.211 30.7516 27.2236 30.7821 27.2461 30.8046C27.2687 30.8272 27.2992 30.8398 27.331 30.8398H48.2726C48.2883 30.8398 48.3039 30.8367 48.3184 30.8306C48.3329 30.8246 48.3461 30.8157 48.3571 30.8046C48.3682 30.7934 48.377 30.7802 48.3829 30.7656C48.3888 30.7511 48.3918 30.7355 48.3917 30.7198V28.2118C48.3909 28.1806 48.3781 28.1509 48.3559 28.1291C48.3336 28.1072 48.3038 28.0948 48.2726 28.0946ZM39.1135 21.7754C39.9001 21.9329 40.6773 22.0801 41.3158 22.5807C41.9206 23.0542 41.9337 23.5436 41.3252 24.0302C40.8986 24.3706 40.3773 24.4709 39.8551 24.5496C39.6169 24.5853 39.3769 24.6012 39.1135 24.6293V21.7754ZM34.2156 17.1813C34.1081 17.1075 34.0131 17.017 33.9343 16.9131C33.7074 16.6084 33.7468 16.3074 34.0712 15.9915C34.2443 15.8426 34.4398 15.722 34.6506 15.6343C34.8202 15.5593 34.9975 15.5033 35.1794 15.4674C35.4419 15.4064 35.7091 15.3633 35.9904 15.3089V17.8751C35.3707 17.6641 34.7453 17.545 34.2184 17.1803L34.2156 17.1813Z" fill="#ECF2F5"/>
<path d="M67.1574 27.6131C62.7508 27.6131 59.0164 24.5285 59.0164 19.0812C59.0164 13.8861 62.5651 10.6431 67.1808 10.6431C68.8272 10.6431 70.6826 10.944 72.1443 12.2435L71.263 14.6324C70.3113 13.8439 69.3147 13.3105 67.3664 13.3105C64.49 13.3105 62.4489 15.5363 62.4489 19.1084C62.4489 23.0049 64.49 24.9992 67.343 24.9992C68.7812 24.9992 70.196 24.6288 71.3324 23.77L72.1668 26.1824C70.451 27.404 68.7812 27.6131 67.1574 27.6131Z" fill="#ECF2F5"/>
<path d="M80.6285 15.3452L80.7907 17.7829H79.9329C77.6593 17.7829 77.242 18.9661 77.242 20.7513V27.3846H74.0449V15.3452H77.0142L77.2458 16.9916C78.0108 15.9237 78.8003 15.3452 80.307 15.3452H80.6285Z" fill="#ECF2F5"/>
<path d="M84.5515 22.0013C84.6208 24.2046 85.85 25.295 87.938 25.295C89.4221 25.295 90.6747 24.7615 91.3929 24.228L92.2742 26.1969C91.2307 27.0088 89.8628 27.6117 87.8217 27.6117C83.6467 27.6117 81.3975 25.1299 81.3975 21.2568C81.3975 17.7081 83.5539 14.8813 87.2882 14.8813C90.9523 14.8813 92.6455 17.7803 92.6455 21.0046V21.0506C92.6455 21.3525 92.6221 21.6534 92.6221 21.9553V22.0013H84.5515ZM89.7231 20.2836V20.1674C89.7231 18.2191 88.8652 17.245 87.3342 17.245C86.2906 17.245 84.7371 17.8713 84.5749 20.2836H89.7231Z" fill="#ECF2F5"/>
<path d="M103.152 25.6877C102.571 26.7772 101.482 27.6126 99.7183 27.6126H99.5561C96.0777 27.5432 94.1988 24.8055 94.1988 21.1874C94.1988 17.8018 96.1237 14.8794 99.6489 14.8794C101.69 14.8794 102.711 15.8301 103.152 16.7114V10.4297H106.352V27.38H103.224L103.152 25.6877ZM103.198 21.2811C103.198 18.22 101.713 17.2496 100.275 17.2496C98.8604 17.2496 97.2834 18.0615 97.2834 21.2811C97.2834 24.3432 98.837 25.2471 100.275 25.2471C101.759 25.2461 103.198 24.3882 103.198 21.2802V21.2811Z" fill="#ECF2F5"/>
<path d="M112.382 13.2821H109.158V10.6382H112.382V13.2821ZM112.359 27.3832H109.158V15.3448H112.359V27.3832Z" fill="#ECF2F5"/>
<path d="M118.876 22.3931C118.876 24.4342 118.991 25.083 120.751 25.083C120.821 25.083 121.772 25.0136 121.772 25.0136L121.959 27.3791C121.959 27.3791 120.776 27.5188 120.15 27.5188C116.416 27.5188 115.674 25.7327 115.674 22.2075V17.2674H113.587L113.774 15.3426H115.677L116.465 10.9585H118.878V15.3435H121.846V17.2684H118.878L118.876 22.3931Z" fill="#ECF2F5"/>
<path d="M138.172 16.6182L133.976 25.0376H131.538L127.248 16.5253V27.3796H124.255V11.0059H127.433L132.768 21.3266L138.055 11.0059H141.187V27.3796H138.172V16.6182Z" fill="#ECF2F5"/>
<path d="M147.332 27.6122C145.081 27.6122 143.528 26.2902 143.528 24.1563C143.528 21.0942 145.662 20.6076 149.651 20.031L150.509 19.8913V19.3344C150.509 17.9205 150.394 17.3167 148.746 17.2473H148.584C147.402 17.2473 145.383 17.8971 144.85 18.0827L144.224 15.7866C145.337 15.2756 146.868 14.9278 148.863 14.8818H149.144C151.927 14.8818 153.738 16.1804 153.738 18.8009V27.3825H151.28L150.946 26.0811C149.906 26.9624 148.883 27.6122 147.332 27.6122ZM150.509 24.5501V21.698L149.651 21.8367C147.87 22.0918 146.404 22.3702 146.404 24.04C146.404 24.9213 146.891 25.5476 147.889 25.5476C149.001 25.5476 149.651 25.1304 150.509 24.5501Z" fill="#ECF2F5"/>
<path d="M163.822 17.9402C163.01 17.4995 161.478 17.1986 160.575 17.1986C159.276 17.1986 158.743 17.523 158.7 18.1952C158.654 19.0306 159.024 19.2387 160.069 19.61L161.924 20.2597C163.408 20.7698 164.916 21.8602 164.916 23.7156C164.916 25.7567 163.594 27.5887 160.764 27.5887C158.514 27.5887 156.891 27.2137 155.708 26.383L156.334 24.2951C157.332 24.9448 159.187 25.2926 160.366 25.2926C161.271 25.2926 161.99 24.9448 161.99 24.0635C161.99 23.3678 161.735 23.1128 160.807 22.7649L158.998 22.0946C157.258 21.4458 155.867 20.5645 155.867 18.5693C155.867 16.0641 157.722 14.8818 160.32 14.8818C162.036 14.8818 163.405 15.1828 164.379 15.856L163.822 17.9402Z" fill="#ECF2F5"/>
<path d="M170.594 22.3931C170.594 24.4342 170.709 25.083 172.469 25.083C172.54 25.083 173.49 25.0136 173.49 25.0136L173.678 27.3791C173.678 27.3791 172.495 27.5188 171.868 27.5188C168.135 27.5188 167.392 25.7327 167.392 22.2075V17.2674H165.305L165.493 15.3426H167.395L168.184 10.9585H170.596V15.3435H173.564V17.2684H170.596L170.594 22.3931Z" fill="#ECF2F5"/>
<path d="M178.479 22.0013C178.548 24.2046 179.778 25.295 181.865 25.295C183.35 25.295 184.602 24.7615 185.321 24.228L186.203 26.1969C185.159 27.0088 183.79 27.6117 181.749 27.6117C177.574 27.6117 175.325 25.1299 175.325 21.2568C175.325 17.7081 177.481 14.8813 181.216 14.8813C184.881 14.8813 186.574 17.7803 186.574 21.0046V21.0506C186.574 21.3525 186.55 21.6534 186.55 21.9553V22.0013H178.479ZM183.652 20.2855V20.1693C183.652 18.221 182.793 17.2468 181.263 17.2468C180.219 17.2468 178.665 17.8731 178.502 20.2855H183.652Z" fill="#ECF2F5"/>
<path d="M195.131 15.3452L195.293 17.7829H194.435C192.163 17.7829 191.745 18.9661 191.745 20.7513V27.3846H188.543V15.3452H191.511L191.743 16.9916C192.509 15.9246 193.297 15.3452 194.805 15.3452H195.131Z" fill="#ECF2F5"/>
<path d="M60.3079 39.323V33.4829H60.9942V38.7146H63.564L63.5406 39.323H60.3079Z" fill="#ECF2F5"/>
<path d="M66.6718 39.323H65.9893V33.4829H66.6718V39.323Z" fill="#ECF2F5"/>
<path d="M72.27 33.985C71.8678 33.9739 71.4718 34.0854 71.1346 34.3047C70.8185 34.5154 70.5719 34.8149 70.4258 35.1654C70.2637 35.5598 70.1842 35.9833 70.1923 36.4096C70.1876 36.7329 70.2289 37.0552 70.3151 37.3669C70.3917 37.6409 70.5189 37.8982 70.6902 38.1253C70.8636 38.3457 71.0891 38.5194 71.3465 38.6307C71.6405 38.7549 71.9574 38.8159 72.2765 38.8098C72.7629 38.8007 73.2408 38.6804 73.6735 38.4582L73.7888 39.0395C73.3963 39.2895 72.865 39.4129 72.195 39.4098C71.7902 39.4167 71.3882 39.3424 71.0127 39.1914C70.6793 39.0562 70.3829 38.8434 70.1482 38.5707C69.9126 38.2904 69.736 37.9654 69.6288 37.6153C69.5055 37.2158 69.4454 36.7995 69.4507 36.3815C69.451 35.9697 69.5214 35.561 69.6588 35.1729C69.7768 34.8235 69.9625 34.5007 70.2054 34.2232C70.4491 33.9533 70.7508 33.7421 71.0877 33.6053C71.4613 33.454 71.8613 33.3788 72.2643 33.384C72.92 33.384 73.4729 33.5291 73.9229 33.8191L73.652 34.3769C73.2366 34.1206 72.7581 33.9849 72.27 33.985Z" fill="#ECF2F5"/>
<path d="M76.4185 39.323V33.4829H79.7665L79.7393 34.0867H77.101V35.9984H79.609V36.5947H77.101V38.7183H79.8256L79.7947 39.323H76.4185Z" fill="#ECF2F5"/>
<path d="M87.161 39.323H86.3866L83.3544 34.7289L83.1566 34.457C83.1785 35.0096 83.1891 35.5031 83.1885 35.9375V39.3259H82.5491V33.4829H83.3113L86.3519 38.077L86.5525 38.3498C86.5344 37.5098 86.5253 37.0241 86.5253 36.8929V33.4829H87.161V39.323Z" fill="#ECF2F5"/>
<path d="M90.0426 38.36C90.6503 38.6601 91.3197 38.8142 91.9975 38.8101C92.8525 38.8101 93.28 38.4207 93.28 37.6419C93.2905 37.419 93.218 37.2002 93.0766 37.0277C92.9416 36.8712 92.6941 36.7465 92.3369 36.6583L91.1752 36.3658C90.2883 36.1427 89.8448 35.6689 89.8448 34.9445C89.8448 34.3894 90.0357 33.9769 90.4176 33.7069C90.7995 33.4368 91.3274 33.3018 92.0012 33.3018C92.3349 33.2998 92.6677 33.3382 92.9922 33.4162C93.2645 33.4783 93.5254 33.5824 93.7657 33.7247L93.5669 34.2835C93.3444 34.1692 93.1089 34.0821 92.8656 34.0238C92.5778 33.9473 92.2812 33.9085 91.9834 33.9084C91.0302 33.9084 90.5536 34.2388 90.5536 34.8995C90.5492 34.9998 90.5666 35.0999 90.6045 35.1929C90.6423 35.286 90.6998 35.3698 90.773 35.4386C90.9623 35.5953 91.188 35.7021 91.4293 35.7489L92.5394 36.017C93.0125 36.1308 93.3716 36.3121 93.6166 36.5608C93.8617 36.8096 93.9842 37.1628 93.9842 37.6203C93.9842 38.216 93.802 38.6641 93.4376 38.9648C93.0732 39.2654 92.5775 39.4164 91.9506 39.4176C91.5295 39.423 91.1095 39.3744 90.7008 39.2732C90.3971 39.2018 90.1053 39.0869 89.8345 38.9319L90.0426 38.36Z" fill="#ECF2F5"/>
<path d="M96.6157 39.323V33.4829H99.9638L99.9366 34.0867H97.2983V35.9984H99.8063V36.5947H97.2983V38.7183H100.023L99.9919 39.323H96.6157Z" fill="#ECF2F5"/>
<path d="M107.548 36.3973C107.548 37.348 107.278 38.0734 106.739 38.5734C106.199 39.0735 105.446 39.3235 104.48 39.3235H102.747V33.4834H104.365C104.806 33.4772 105.247 33.535 105.672 33.6549C106.037 33.7592 106.378 33.9366 106.673 34.1762C106.964 34.4198 107.188 34.7339 107.323 35.0885C107.481 35.5064 107.557 35.9507 107.548 36.3973ZM106.818 36.417C106.818 35.6045 106.607 35.0107 106.186 34.6356C105.764 34.2606 105.152 34.0753 104.349 34.0796H103.433V38.7272H104.464C105.232 38.7272 105.817 38.5331 106.219 38.145C106.621 37.7568 106.821 37.1808 106.818 36.417Z" fill="#ECF2F5"/>
<path d="M116.488 38.964L114.696 34.7936L114.546 34.3952L114.574 35.824V39.323H113.933V33.4829H114.818L116.852 38.1342L118.866 33.4829H119.725V39.323H119.061V35.8081L119.089 34.4102L118.943 34.8096L117.154 38.964H116.488Z" fill="#ECF2F5"/>
<path d="M128.013 36.4045C128.016 36.8182 127.953 37.2297 127.826 37.6233C127.714 37.9721 127.534 38.295 127.296 38.5731C127.058 38.8433 126.759 39.0542 126.425 39.1891C126.05 39.3398 125.649 39.4141 125.245 39.4075C124.715 39.4234 124.191 39.2936 123.73 39.0325C123.316 38.7871 122.986 38.4206 122.786 37.9824C122.567 37.4845 122.46 36.9445 122.473 36.4007C122.473 35.4632 122.717 34.7262 123.204 34.1899C123.69 33.6537 124.372 33.3836 125.248 33.3799C126.112 33.3799 126.788 33.6518 127.276 34.1956C127.765 34.7394 128.01 35.4757 128.013 36.4045ZM123.204 36.4045C123.204 37.1545 123.377 37.7437 123.721 38.1718C124.065 38.6 124.575 38.814 125.249 38.814C125.923 38.814 126.431 38.6006 126.772 38.1737C127.113 37.7468 127.284 37.157 127.283 36.4045C127.283 35.6369 127.111 35.0406 126.768 34.6156C126.425 34.1906 125.921 33.9787 125.257 33.9799C124.591 33.9799 124.083 34.1918 123.733 34.6156C123.383 35.0394 123.207 35.6357 123.204 36.4045Z" fill="#ECF2F5"/>
<path d="M135.372 39.323H134.599L131.566 34.7289L131.369 34.457C131.389 35.0096 131.4 35.5031 131.4 35.9375V39.3259H130.76V33.4829H131.522L134.563 38.077L134.765 38.3498C134.746 37.5098 134.736 37.0241 134.736 36.8929V33.4829H135.372V39.323Z" fill="#ECF2F5"/>
<path d="M138.364 39.323V33.4829H141.713L141.685 34.0867H139.047V35.9984H141.554V36.5947H139.047V38.7183H141.772L141.74 39.323H138.364Z" fill="#ECF2F5"/>
<path d="M146.141 36.3453L147.785 33.4829H148.526L146.464 36.9932V39.323H145.773V37.0091L143.804 33.4829H144.543L146.141 36.3453Z" fill="#ECF2F5"/>
<path d="M154.462 39.323V33.4829H155.149V38.7146H157.72L157.697 39.323H154.462Z" fill="#ECF2F5"/>
<path d="M160.112 39.323V33.4829H163.46L163.433 34.0867H160.791V35.9984H163.299V36.5947H160.791V38.7183H163.515L163.485 39.323H160.112Z" fill="#ECF2F5"/>
<path d="M170.855 39.323H170.08L167.048 34.7289L166.85 34.457C166.871 35.0096 166.882 35.5031 166.882 35.9375V39.3259H166.243V33.4829H167.005L170.045 38.077L170.246 38.3498C170.229 37.5098 170.22 37.0241 170.219 36.8929V33.4829H170.855V39.323Z" fill="#ECF2F5"/>
<path d="M178.647 36.3973C178.647 37.348 178.378 38.0734 177.838 38.5734C177.299 39.0735 176.546 39.3235 175.58 39.3235H173.846V33.4833H175.465C175.907 33.4773 176.347 33.5351 176.772 33.6549C177.137 33.7593 177.478 33.9367 177.772 34.1762C178.063 34.4198 178.287 34.7339 178.422 35.0885C178.58 35.5064 178.656 35.9507 178.647 36.3973ZM177.917 36.417C177.917 35.6044 177.706 35.0106 177.285 34.6356C176.864 34.2606 176.25 34.075 175.445 34.0787H174.529V38.7272H175.56C176.328 38.7272 176.913 38.5331 177.315 38.1449C177.717 37.7568 177.918 37.1808 177.917 36.417Z" fill="#ECF2F5"/>
<path d="M181.395 39.323V33.4829H184.743L184.715 34.0867H182.073V35.9984H184.581V36.5947H182.073V38.7183H184.799L184.767 39.323H181.395Z" fill="#ECF2F5"/>
<path d="M191.861 39.3237H191.074L190.269 37.4917C190.05 36.9998 189.91 36.7035 189.849 36.6029C189.657 36.616 189.43 36.6225 189.167 36.6225L188.121 36.5907V39.3237H187.417V33.417H189.285C189.502 33.417 189.692 33.4226 189.858 33.4329C190.024 33.4436 190.19 33.4627 190.354 33.4901C190.5 33.5132 190.644 33.5515 190.782 33.6045C190.903 33.6529 191.017 33.7159 191.122 33.792C191.225 33.8676 191.311 33.9633 191.376 34.0733C191.445 34.1936 191.497 34.3234 191.529 34.4586C191.567 34.6236 191.586 34.7927 191.584 34.9621C191.592 35.3024 191.49 35.6362 191.293 35.9137C191.09 36.1861 190.799 36.3812 190.47 36.4669C190.494 36.5156 190.52 36.5628 190.549 36.6085C190.601 36.7022 190.664 36.8082 190.736 36.9385C190.809 37.0688 190.865 37.1776 190.904 37.2638L191.861 39.3237ZM188.118 34.0283V36.0028C188.225 36.0028 188.448 36.0053 188.787 36.0103C189.126 36.0153 189.387 36.0181 189.571 36.0188C190.071 36.0188 190.421 35.935 190.621 35.7675C190.818 35.6006 190.917 35.3353 190.917 34.9724C190.917 34.6536 190.824 34.4164 190.636 34.2608C190.449 34.1052 190.131 34.0277 189.684 34.0283H188.118Z" fill="#ECF2F5"/>
</svg>
