<svg width="188" height="48" viewBox="0 0 188 48" fill="none" xmlns="http://www.w3.org/2000/svg">
<path d="M35.4744 47.8341L35.3007 47.7846C34.3673 47.5146 33.4024 47.2446 32.461 46.8846C32.1288 46.7568 31.7922 46.6451 31.4358 46.5245C31.0794 46.4039 30.7301 46.2896 30.3755 46.1546C29.4115 45.7892 28.4665 45.4013 27.669 45.07C27.2667 44.9026 26.868 44.7235 26.4818 44.5507C26.2586 44.4508 26.0318 44.3509 25.8113 44.2528C25.6241 44.1709 25.435 44.0908 25.2469 44.0116C24.9337 43.8792 24.6106 43.7415 24.2911 43.5948C23.931 43.4283 23.571 43.2519 23.229 43.0818C23.0274 42.9819 22.8257 42.882 22.6241 42.7848L21.7241 42.3545C21.3676 42.1847 21.0118 42.014 20.6566 41.8424C20.1075 41.5724 19.5612 41.3023 19.0365 41.0404L18.9753 41.0089C18.4352 40.7389 17.8736 40.4608 17.3245 40.1791C17.1283 40.0792 16.9375 39.9747 16.7521 39.873C16.6207 39.801 16.4884 39.729 16.3561 39.6588C16.0428 39.4941 15.726 39.3312 15.4155 39.1674L14.7593 38.8254L13.3525 38.0882L12.8683 37.8326C12.367 37.5698 11.8485 37.2979 11.3382 37.0225C11.0682 36.8776 10.8035 36.7273 10.5452 36.5824C10.3202 36.4546 10.0952 36.3277 9.86746 36.2044C9.50743 36.0093 9.14741 35.8161 8.78738 35.6247C8.44355 35.4384 8.09793 35.2521 7.7478 35.0631C7.43008 34.8903 7.11775 34.7147 6.79913 34.5383C6.58851 34.4204 6.377 34.3025 6.16908 34.1864L5.35902 33.7364C5.02359 33.5528 4.68877 33.3688 4.35454 33.1846C3.95491 32.9632 3.55558 32.7409 3.15655 32.5177L1.85595 31.7976C1.63274 31.6743 1.40592 31.5546 1.1827 31.4376L0.807373 31.236C0.756969 31.209 0.707465 31.1802 0.652561 31.146L0.24213 30.9093C0.183995 30.8756 0.13348 30.8303 0.0937841 30.7761C0.0540884 30.7219 0.0260769 30.66 0.0115238 30.5945C-0.00302933 30.5289 -0.00380703 30.461 0.00923997 30.3951C0.022287 30.3292 0.0488743 30.2668 0.0873183 30.2117L0.322236 29.8868C1.05309 28.8739 1.75484 27.9021 2.4275 26.9715C9.15101 17.6044 13.2121 11.9538 21.1282 6.44989C27.2838 2.17007 33.6743 3.3233e-06 40.1197 3.3233e-06C42.5575 -0.00114454 44.9865 0.295065 47.3526 0.88207C48.115 1.07198 48.0817 0.989178 48.178 1.82714C48.2122 2.12506 48.2383 2.42299 48.268 2.72091L48.2932 2.95313C48.334 3.33776 48.3754 3.72179 48.4174 4.10522L48.4534 4.44634C48.4831 4.72626 48.5128 5.00618 48.5434 5.28611C48.5821 5.61373 48.6235 5.94135 48.6649 6.26898L48.7621 7.05024C48.8197 7.50837 48.8764 7.96651 48.9367 8.42464C48.9772 8.73157 49.0204 9.03849 49.0645 9.34541C49.0861 9.49572 49.1068 9.64514 49.1284 9.79545C49.1428 9.89716 49.1707 10.1159 49.1996 10.3355C49.2284 10.5551 49.2545 10.7612 49.2698 10.8755L49.5929 13.2085L47.8584 11.6145C44.6362 8.64746 40.4153 7.00195 36.0351 7.00524C26.3918 7.00524 18.5459 14.8502 18.5459 24.4945C18.5459 34.1387 26.3918 41.9837 36.0351 41.9837C37.1204 41.9835 38.2032 41.8832 39.27 41.684L41.5202 41.2627L40.0801 43.0467C39.81 43.3815 39.4716 43.7955 39.1161 44.2312C38.4653 45.0295 37.7273 45.9341 37.2754 46.5164C37.0801 46.773 36.9001 47.0331 36.7021 47.313L36.6202 47.4291C36.0396 48.1789 36.3484 48.0466 35.4744 47.8341Z" fill="#1DC8BE"/>
<path d="M46.3417 33.8657H26.2378C26.1741 33.8657 26.1226 33.9173 26.1226 33.9809V36.3904C26.1226 36.454 26.1741 36.5056 26.2378 36.5056H46.3417C46.4053 36.5056 46.4569 36.454 46.4569 36.3904V33.9809C46.4569 33.9173 46.4053 33.8657 46.3417 33.8657Z" fill="#1E3144"/>
<path d="M33.297 30.4172H26.2378C26.1741 30.4172 26.1226 30.4688 26.1226 30.5324V32.9419C26.1226 33.0056 26.1741 33.0571 26.2378 33.0571H33.297C33.3606 33.0571 33.4122 33.0056 33.4122 32.9419V30.5324C33.4122 30.4688 33.3606 30.4172 33.297 30.4172Z" fill="#1E3144"/>
<path d="M46.341 30.4172H39.2817C39.2181 30.4172 39.1665 30.4688 39.1665 30.5324V32.9419C39.1665 33.0056 39.2181 33.0571 39.2817 33.0571H46.341C46.4046 33.0571 46.4562 33.0056 46.4562 32.9419V30.5324C46.4562 30.4688 46.4046 30.4172 46.341 30.4172Z" fill="#1E3144"/>
<path d="M46.3417 26.9708H37.5516V25.9907C37.9216 25.9763 38.2798 25.9817 38.6317 25.9457C39.4472 25.862 40.2644 25.7873 41.0727 25.6559C42.025 25.5001 42.9529 25.2373 43.8071 24.7702C44.8584 24.1959 45.6009 23.3931 45.7639 22.1465C45.8656 21.3742 45.6909 20.7064 45.1338 20.1483C44.6028 19.6146 43.9637 19.2546 43.2788 18.9566C41.8945 18.3518 40.4354 17.9918 38.9584 17.6965C38.4886 17.6065 38.0161 17.5165 37.5453 17.4265V14.8289C37.7964 14.8712 38.0305 14.9 38.2591 14.9495C39.0187 15.1115 39.6389 15.4635 39.962 16.2186C39.9869 16.2476 40.0179 16.2707 40.0527 16.2863C40.0876 16.3018 40.1255 16.3095 40.1636 16.3086C41.8522 16.314 43.5407 16.3086 45.2292 16.3158C45.3948 16.3158 45.4389 16.26 45.4227 16.1097C45.3875 15.6513 45.2464 15.2073 45.0105 14.8127C44.6226 14.1971 44.0636 13.7803 43.4282 13.4563C42.5931 13.0368 41.698 12.7495 40.7748 12.6049C40.0196 12.4806 39.2609 12.3825 38.5021 12.2817C38.1907 12.2403 37.8721 12.2241 37.5264 12.1917V11.0486C37.116 10.9586 34.8055 10.9712 34.5562 11.0657V12.1908C34.1062 12.2466 33.6723 12.2853 33.2448 12.3555C32.5076 12.477 31.7687 12.5932 31.0396 12.7561C30.1261 12.9604 29.2395 13.2637 28.4393 13.7641C27.955 14.0501 27.5444 14.4456 27.2404 14.9189C26.9146 15.4455 26.8705 16.0287 26.8633 16.6219C26.8577 17.1336 27.0374 17.63 27.3692 18.0197C27.6895 18.3988 28.0809 18.7116 28.5212 18.9404C29.8218 19.6524 31.2439 19.9827 32.6841 20.25C33.3015 20.3643 33.9226 20.4544 34.5427 20.5552V23.4867C34.1827 23.3832 33.8388 23.3067 33.5121 23.1879C33.0324 23.015 32.5967 22.7603 32.3627 22.2806C32.2583 22.0664 32.2169 21.8207 32.144 21.5794H26.5168C26.5438 22.4714 26.8327 23.241 27.4349 23.88C28.0874 24.5713 28.9119 24.9763 29.7993 25.2679C31.1494 25.7126 32.5535 25.8854 33.9712 25.9493C34.1647 25.9583 34.3582 25.9808 34.5472 25.997V26.9708H26.2378C26.2072 26.9708 26.1779 26.983 26.1563 27.0046C26.1347 27.0262 26.1226 27.0555 26.1226 27.0861V29.491C26.1226 29.5216 26.1347 29.5509 26.1563 29.5725C26.1779 29.5941 26.2072 29.6063 26.2378 29.6063H46.3417C46.3568 29.6063 46.3717 29.6033 46.3856 29.5975C46.3996 29.5917 46.4122 29.5832 46.4228 29.5725C46.4335 29.5617 46.4419 29.549 46.4476 29.5351C46.4533 29.5211 46.4561 29.5061 46.456 29.491V27.0834C46.4553 27.0534 46.443 27.0249 46.4216 27.0039C46.4003 26.9829 46.3716 26.9711 46.3417 26.9708ZM37.5489 20.9044C38.3041 21.0556 39.0502 21.1969 39.6632 21.6775C40.2437 22.1321 40.2563 22.6019 39.6722 23.0691C39.2627 23.3958 38.7622 23.4921 38.2609 23.5677C38.0323 23.6019 37.8018 23.6172 37.5489 23.6442V20.9044ZM32.847 16.4941C32.7438 16.4232 32.6526 16.3363 32.5769 16.2366C32.3591 15.9441 32.3969 15.6552 32.7084 15.3519C32.8745 15.2089 33.0623 15.0932 33.2646 15.0089C33.4274 14.937 33.5976 14.8832 33.7722 14.8487C34.0243 14.7902 34.2808 14.7488 34.5508 14.6966V17.1601C33.9559 16.9576 33.3555 16.8433 32.8497 16.4932L32.847 16.4941Z" fill="#1E3144"/>
<path d="M64.4711 26.5085C60.2407 26.5085 56.6558 23.5473 56.6558 18.3179C56.6558 13.3306 60.0625 10.2173 64.4936 10.2173C66.0741 10.2173 67.8553 10.5062 69.2585 11.7537L68.4125 14.0471C67.4989 13.2901 66.5421 12.778 64.6718 12.778C61.9104 12.778 59.9509 14.9147 59.9509 18.344C59.9509 22.0847 61.9104 23.9991 64.6493 23.9991C66.03 23.9991 67.3882 23.6436 68.4791 22.8191L69.2801 25.135C67.633 26.3078 66.03 26.5085 64.4711 26.5085Z" fill="#1E3144"/>
<path d="M77.4033 14.7314L77.559 17.0716H76.7354C74.5528 17.0716 74.1522 18.2075 74.1522 19.9212V26.2892H71.083V14.7314H73.9335L74.1558 16.312C74.8903 15.2868 75.6482 14.7314 77.0946 14.7314H77.4033Z" fill="#1E3144"/>
<path d="M81.1694 21.1213C81.236 23.2364 82.416 24.2832 84.4205 24.2832C85.8453 24.2832 87.0478 23.7711 87.7372 23.2589L88.5833 25.1491C87.5815 25.9285 86.2683 26.5073 84.3089 26.5073C80.3009 26.5073 78.1416 24.1248 78.1416 20.4066C78.1416 16.9998 80.2118 14.2861 83.7967 14.2861C87.3142 14.2861 88.9397 17.0691 88.9397 20.1645V20.2086C88.9397 20.4984 88.9172 20.7873 88.9172 21.0771V21.1213H81.1694ZM86.1342 19.4723V19.3607C86.1342 17.4904 85.3106 16.5552 83.8408 16.5552C82.8391 16.5552 81.3476 17.1565 81.1919 19.4723H86.1342Z" fill="#1E3144"/>
<path d="M99.0254 24.6602C98.4683 25.706 97.4224 26.508 95.7294 26.508H95.5737C92.2344 26.4414 90.4307 23.8132 90.4307 20.3398C90.4307 17.0897 92.2785 14.2842 95.6628 14.2842C97.6222 14.2842 98.6024 15.1968 99.0254 16.0429V10.0125H102.097V26.2848H99.0947L99.0254 24.6602ZM99.0695 20.4298C99.0695 17.4911 97.6447 16.5595 96.264 16.5595C94.9058 16.5595 93.3919 17.339 93.3919 20.4298C93.3919 23.3695 94.8833 24.2371 96.264 24.2371C97.6888 24.2362 99.0695 23.4127 99.0695 20.4289V20.4298Z" fill="#1E3144"/>
<path d="M107.887 12.7506H104.792V10.2124H107.887V12.7506ZM107.864 26.2876H104.792V14.7307H107.864V26.2876Z" fill="#1E3144"/>
<path d="M114.121 21.4977C114.121 23.4572 114.231 24.08 115.921 24.08C115.988 24.08 116.901 24.0134 116.901 24.0134L117.081 26.2843C117.081 26.2843 115.945 26.4184 115.344 26.4184C111.759 26.4184 111.047 24.7038 111.047 21.3195V16.5771H109.043L109.223 14.7292H111.05L111.807 10.5205H114.123V14.7301H116.972V16.578H114.123L114.121 21.4977Z" fill="#1E3144"/>
<path d="M132.645 15.9535L128.617 24.0361H126.277L122.158 15.8644V26.2845H119.285V10.5657H122.335L127.457 20.4736L132.533 10.5657H135.539V26.2845H132.645V15.9535Z" fill="#1E3144"/>
<path d="M141.438 26.5077C139.278 26.5077 137.787 25.2387 137.787 23.1901C137.787 20.2505 139.835 19.7833 143.665 19.2298L144.489 19.0957V18.561C144.489 17.2037 144.378 16.6241 142.796 16.5575H142.641C141.506 16.5575 139.568 17.1812 139.056 17.3595L138.455 15.1552C139.524 14.6646 140.994 14.3307 142.908 14.2866H143.178C145.849 14.2866 147.588 15.5332 147.588 18.0489V26.2872H145.228L144.908 25.0379C143.91 25.884 142.928 26.5077 141.438 26.5077ZM144.489 23.5681V20.8301L143.665 20.9633C141.955 21.2081 140.548 21.4755 140.548 23.0785C140.548 23.9246 141.015 24.5258 141.973 24.5258C143.041 24.5258 143.665 24.1253 144.489 23.5681Z" fill="#1E3144"/>
<path d="M157.269 17.2226C156.489 16.7996 155.019 16.5107 154.152 16.5107C152.904 16.5107 152.393 16.8221 152.352 17.4675C152.308 18.2694 152.663 18.4692 153.666 18.8257L155.447 19.4494C156.872 19.939 158.319 20.9858 158.319 22.7671C158.319 24.7265 157.05 26.4852 154.334 26.4852C152.174 26.4852 150.616 26.1252 149.48 25.3278L150.081 23.3233C151.039 23.9471 152.82 24.281 153.951 24.281C154.82 24.281 155.51 23.9471 155.51 23.101C155.51 22.4331 155.265 22.1883 154.374 21.8544L152.638 21.2108C150.968 20.588 149.632 19.7419 149.632 17.8266C149.632 15.4216 151.413 14.2866 153.907 14.2866C155.554 14.2866 156.868 14.5755 157.804 15.2218L157.269 17.2226Z" fill="#1E3144"/>
<path d="M163.77 21.4977C163.77 23.4572 163.881 24.08 165.57 24.08C165.638 24.08 166.55 24.0134 166.55 24.0134L166.73 26.2843C166.73 26.2843 165.595 26.4184 164.993 26.4184C161.409 26.4184 160.696 24.7038 160.696 21.3195V16.5771H158.693L158.873 14.7292H160.699L161.456 10.5205H163.772V14.7301H166.622V16.578H163.772L163.77 21.4977Z" fill="#1E3144"/>
<path d="M171.34 21.1213C171.406 23.2364 172.587 24.2832 174.591 24.2832C176.016 24.2832 177.218 23.7711 177.909 23.2589L178.755 25.1491C177.753 25.9285 176.439 26.5073 174.479 26.5073C170.471 26.5073 168.312 24.1248 168.312 20.4066C168.312 16.9998 170.382 14.2861 173.967 14.2861C177.486 14.2861 179.111 17.0691 179.111 20.1645V20.2086C179.111 20.4984 179.089 20.7873 179.089 21.0771V21.1213H171.34ZM176.306 19.4741V19.3625C176.306 17.4922 175.481 16.557 174.012 16.557C173.01 16.557 171.518 17.1583 171.362 19.4741H176.306Z" fill="#1E3144"/>
<path d="M187.326 14.7314L187.481 17.0716H186.658C184.476 17.0716 184.075 18.2075 184.075 19.9212V26.2892H181.001V14.7314H183.851L184.073 16.312C184.808 15.2877 185.565 14.7314 187.013 14.7314H187.326Z" fill="#1E3144"/>
<path d="M57.8955 37.7501V32.1436H58.5544V37.1659H61.0214L60.9989 37.7501H57.8955Z" fill="#1E3144"/>
<path d="M64.0049 37.7501H63.3496V32.1436H64.0049V37.7501Z" fill="#1E3144"/>
<path d="M69.3792 32.6255C68.9931 32.6149 68.613 32.7219 68.2892 32.9325C67.9858 33.1347 67.749 33.4222 67.6087 33.7587C67.4531 34.1373 67.3768 34.5438 67.3846 34.9531C67.3801 35.2635 67.4198 35.5729 67.5025 35.8721C67.576 36.1352 67.6981 36.3821 67.8626 36.6002C68.029 36.8118 68.2456 36.9785 68.4926 37.0854C68.7749 37.2046 69.0791 37.2631 69.3855 37.2573C69.8524 37.2486 70.3112 37.1331 70.7266 36.9198L70.8373 37.4778C70.4605 37.7178 69.9504 37.8363 69.3072 37.8333C68.9186 37.8399 68.5327 37.7686 68.1722 37.6236C67.8521 37.4939 67.5676 37.2896 67.3423 37.0278C67.1161 36.7587 66.9466 36.4467 66.8437 36.1106C66.7253 35.7271 66.6676 35.3274 66.6727 34.9261C66.6729 34.5308 66.7405 34.1385 66.8725 33.7659C66.9857 33.4304 67.164 33.1206 67.3972 32.8541C67.6312 32.5951 67.9207 32.3923 68.2442 32.261C68.6028 32.1157 68.9869 32.0435 69.3738 32.0486C70.0032 32.0486 70.534 32.1878 70.966 32.4662L70.7059 33.0018C70.3071 32.7557 69.8477 32.6254 69.3792 32.6255Z" fill="#1E3144"/>
<path d="M73.3618 37.7501V32.1436H76.576L76.5499 32.7232H74.0171V34.5584H76.4248V35.1309H74.0171V37.1695H76.6327L76.603 37.7501H73.3618Z" fill="#1E3144"/>
<path d="M83.6745 37.7501H82.9311L80.0202 33.3397L79.8303 33.0787C79.8513 33.6092 79.8615 34.0829 79.8609 34.4999V37.7528H79.2471V32.1436H79.9788L82.8977 36.5539L83.0904 36.8158C83.073 36.0093 83.0643 35.5431 83.0643 35.4171V32.1436H83.6745V37.7501Z" fill="#1E3144"/>
<path d="M86.441 36.8257C87.0244 37.1137 87.667 37.2617 88.3177 37.2577C89.1385 37.2577 89.549 36.8839 89.549 36.1362C89.559 35.9223 89.4894 35.7123 89.3536 35.5467C89.224 35.3964 88.9864 35.2766 88.6435 35.192L87.5283 34.9112C86.6768 34.697 86.2511 34.2422 86.2511 33.5467C86.2511 33.0139 86.4344 32.6178 86.8011 32.3586C87.1677 32.0994 87.6744 31.9698 88.3213 31.9698C88.6417 31.9679 88.9611 32.0047 89.2726 32.0796C89.534 32.1392 89.7845 32.2391 90.0152 32.3757L89.8244 32.9122C89.6107 32.8025 89.3847 32.7188 89.1511 32.6629C88.8748 32.5894 88.5901 32.5522 88.3042 32.5521C87.3891 32.5521 86.9316 32.8693 86.9316 33.5035C86.9274 33.5999 86.944 33.696 86.9804 33.7853C87.0167 33.8746 87.0719 33.955 87.1422 34.0211C87.3239 34.1716 87.5406 34.274 87.7722 34.319L88.8379 34.5764C89.2921 34.6856 89.6369 34.8596 89.8721 35.0984C90.1073 35.3373 90.2249 35.6763 90.2249 36.1155C90.2249 36.6874 90.05 37.1176 89.7002 37.4062C89.3503 37.6948 88.8745 37.8397 88.2727 37.8409C87.8685 37.8461 87.4653 37.7995 87.0729 37.7023C86.7813 37.6338 86.5012 37.5234 86.2412 37.3747L86.441 36.8257Z" fill="#1E3144"/>
<path d="M92.751 37.7501V32.1436H95.9651L95.939 32.7232H93.4062V34.5584H95.8139V35.1309H93.4062V37.1695H96.0218L95.9921 37.7501H92.751Z" fill="#1E3144"/>
<path d="M103.246 34.9414C103.246 35.8541 102.987 36.5504 102.469 37.0305C101.951 37.5105 101.229 37.7505 100.301 37.7505H98.6367V32.144H100.19C100.614 32.1381 101.037 32.1936 101.445 32.3087C101.796 32.4088 102.123 32.5791 102.406 32.8091C102.685 33.043 102.9 33.3445 103.03 33.6849C103.181 34.0862 103.255 34.5126 103.246 34.9414ZM102.545 34.9603C102.545 34.1802 102.343 33.6102 101.938 33.2502C101.534 32.8901 100.946 32.7122 100.175 32.7164H99.2956V37.1781H100.286C101.023 37.1781 101.585 36.9917 101.971 36.6191C102.356 36.2465 102.548 35.6936 102.545 34.9603Z" fill="#1E3144"/>
<path d="M111.829 37.4054L110.108 33.4019L109.964 33.0193L109.991 34.391V37.7501H109.376V32.1436H110.226L112.178 36.6088L114.111 32.1436H114.936V37.7501H114.298V34.3757L114.325 33.0337L114.185 33.4172L112.468 37.4054H111.829Z" fill="#1E3144"/>
<path d="M122.893 34.9481C122.896 35.3452 122.835 35.7402 122.713 36.1181C122.606 36.4529 122.433 36.7629 122.204 37.0299C121.975 37.2893 121.689 37.4918 121.368 37.6213C121.008 37.7659 120.623 37.8372 120.235 37.831C119.726 37.8462 119.224 37.7216 118.781 37.4709C118.383 37.2354 118.067 36.8836 117.875 36.4629C117.665 35.9849 117.562 35.4665 117.574 34.9445C117.574 34.0444 117.808 33.3369 118.275 32.8221C118.743 32.3073 119.397 32.048 120.238 32.0444C121.068 32.0444 121.717 32.3055 122.185 32.8275C122.654 33.3495 122.89 34.0564 122.893 34.9481ZM118.276 34.9481C118.276 35.6681 118.442 36.2337 118.772 36.6447C119.103 37.0557 119.592 37.2612 120.239 37.2612C120.886 37.2612 121.373 37.0563 121.701 36.6465C122.029 36.2367 122.192 35.6705 122.192 34.9481C122.192 34.2112 122.027 33.6388 121.697 33.2307C121.368 32.8227 120.884 32.6193 120.247 32.6205C119.607 32.6205 119.12 32.8239 118.784 33.2307C118.448 33.6376 118.279 34.21 118.276 34.9481Z" fill="#1E3144"/>
<path d="M129.957 37.7501H129.215L126.303 33.3397L126.114 33.0787C126.134 33.6092 126.144 34.0829 126.144 34.4999V37.7528H125.53V32.1436H126.262L129.18 36.5539L129.374 36.8158C129.356 36.0093 129.347 35.5431 129.347 35.4171V32.1436H129.957V37.7501Z" fill="#1E3144"/>
<path d="M132.829 37.7501V32.1436H136.044L136.017 32.7232H133.485V34.5584H135.892V35.1309H133.485V37.1695H136.101L136.07 37.7501H132.829Z" fill="#1E3144"/>
<path d="M140.295 34.8915L141.873 32.1436H142.585L140.605 35.5134V37.7501H139.942V35.5287L138.052 32.1436H138.761L140.295 34.8915Z" fill="#1E3144"/>
<path d="M148.284 37.7501V32.1436H148.943V37.1659H151.411L151.389 37.7501H148.284Z" fill="#1E3144"/>
<path d="M153.708 37.7501V32.1436H156.922L156.896 32.7232H154.359V34.5584H156.767V35.1309H154.359V37.1695H156.975L156.945 37.7501H153.708Z" fill="#1E3144"/>
<path d="M164.02 37.7501H163.277L160.366 33.3397L160.176 33.0787C160.197 33.6092 160.207 34.0829 160.207 34.4999V37.7528H159.593V32.1436H160.325L163.244 36.5539L163.436 36.8158C163.42 36.0093 163.411 35.5431 163.41 35.4171V32.1436H164.02V37.7501Z" fill="#1E3144"/>
<path d="M171.501 34.9414C171.501 35.8541 171.242 36.5504 170.725 37.0304C170.207 37.5105 169.484 37.7505 168.556 37.7505H166.892V32.144H168.447C168.87 32.1381 169.293 32.1936 169.701 32.3087C170.052 32.4089 170.379 32.5792 170.662 32.8091C170.941 33.043 171.156 33.3445 171.285 33.6849C171.437 34.0861 171.51 34.5126 171.501 34.9414ZM170.8 34.9603C170.8 34.1802 170.598 33.6102 170.194 33.2502C169.789 32.8901 169.2 32.7119 168.427 32.7155H167.547V37.1781H168.537C169.275 37.1781 169.837 36.9917 170.222 36.6191C170.608 36.2465 170.801 35.6935 170.8 34.9603Z" fill="#1E3144"/>
<path d="M174.139 37.7501V32.1436H177.353L177.327 32.7232H174.79V34.5584H177.198V35.1309H174.79V37.1695H177.407L177.376 37.7501H174.139Z" fill="#1E3144"/>
<path d="M184.186 37.751H183.431L182.658 35.9923C182.448 35.52 182.314 35.2356 182.256 35.139C182.071 35.1516 181.853 35.1579 181.6 35.1579L180.596 35.1273V37.751H179.921V32.0806H181.714C181.922 32.0806 182.104 32.086 182.264 32.0959C182.423 32.1061 182.582 32.1244 182.74 32.1508C182.88 32.1729 183.018 32.2097 183.151 32.2606C183.267 32.307 183.376 32.3675 183.477 32.4406C183.576 32.5132 183.659 32.605 183.721 32.7106C183.788 32.8261 183.837 32.9507 183.868 33.0805C183.905 33.2389 183.923 33.4012 183.921 33.5639C183.929 33.8905 183.831 34.211 183.642 34.4774C183.446 34.7389 183.168 34.9262 182.852 35.0085C182.874 35.0552 182.899 35.1006 182.927 35.1444C182.978 35.2344 183.038 35.3361 183.107 35.4612C183.176 35.5863 183.23 35.6907 183.268 35.7735L184.186 37.751ZM180.593 32.6674V34.563C180.696 34.563 180.911 34.5654 181.236 34.5702C181.561 34.575 181.812 34.5777 181.988 34.5783C182.468 34.5783 182.804 34.4978 182.996 34.337C183.185 34.1768 183.281 33.9221 183.281 33.5738C183.281 33.2678 183.191 33.04 183.011 32.8906C182.831 32.7412 182.526 32.6668 182.097 32.6674H180.593Z" fill="#1E3144"/>
</svg>
