<svg width="600" height="256" viewBox="0 0 600 256" fill="none" xmlns="http://www.w3.org/2000/svg">
<path d="M447.729 211.848C446.724 211.848 445.708 211.579 444.786 211.019C437.491 206.604 440.569 195.858 448.361 178.791C454.558 165.206 464.061 147.517 473.242 130.419C481.667 114.74 490.371 98.5331 496.558 85.4452C504.35 68.9687 505.335 63.2071 505.366 61.4144C503.687 59.6942 503.21 57.0206 504.392 54.7823C505.853 51.9948 509.304 50.9171 512.091 52.3886C513.49 53.1243 515.355 54.6165 516.246 57.5284C519.241 67.29 508.495 88.8752 483.283 135.818C475.117 151.02 466.662 166.75 460.682 179.33C453.149 195.175 452.133 200.719 452.071 202.439C453.625 204.252 453.916 206.936 452.61 209.092C451.543 210.864 449.657 211.838 447.729 211.838V211.848ZM325.648 219.786C324.072 219.786 322.497 219.133 321.378 217.858C311.223 206.356 328.176 181.33 369.274 126.947C382.548 109.393 396.269 91.2379 405.709 76.5541C418.838 56.1295 418.237 50.7513 417.957 49.829C415.377 48.1399 414.6 44.6892 416.237 42.0571C417.895 39.3835 421.408 38.5545 424.082 40.2125C426.797 41.9016 428.558 44.5234 429.17 47.8187C431.843 62.1708 411.605 89.8493 378.372 133.828C365.212 151.237 351.606 169.247 342.228 183.796C328.85 204.563 329.751 209.693 330 210.408C332 212.77 331.751 216.304 329.42 218.366C328.331 219.319 326.995 219.796 325.648 219.796V219.786ZM196.768 232.843C195.048 232.843 193.348 232.065 192.229 230.594C184.613 220.594 199.027 198.045 252.591 125.652C268.332 104.388 284.601 82.3882 296.363 64.6993C311.72 41.6011 313.813 33.9328 314 31.7049C312.124 30.0572 311.492 27.2904 312.643 24.9381C314.021 22.1091 317.43 20.9174 320.259 22.2956C322.694 23.477 324.404 25.6324 325.078 28.3577C328.166 40.9276 308.156 69.7252 261.762 132.439C246.384 153.216 230.488 174.708 219.027 191.89C203.224 215.589 201.68 222.501 201.701 224.304C203.11 226.749 202.519 229.92 200.219 231.682C199.183 232.469 197.97 232.853 196.768 232.853V232.843ZM46.3553 254.428C44.8527 254.428 43.3501 253.837 42.231 252.666C34.1585 244.231 40.832 227.278 66.0131 192.211C85.1632 165.538 111.712 133.289 137.391 102.098C155.991 79.5074 173.556 58.1605 186.571 41.0208C201.576 21.249 205.69 13.2387 206.778 10.1092C205.379 8.91754 204.582 7.06264 204.809 5.10411C205.172 1.97461 208.012 -0.263707 211.131 0.109346C214.312 0.482399 216.789 2.29585 217.908 5.08338C221.97 15.1662 206.281 36.368 146.199 109.352C121.484 139.372 95.9299 170.418 77.1218 196.314C48.4796 235.754 50.1376 243.879 50.5418 244.863C52.6454 247.143 52.5417 250.697 50.2931 252.853C49.1843 253.91 47.775 254.438 46.3553 254.438V254.428Z" fill="url(#paint0_linear_1631_1587)"/>
<g filter="url(#filter0_d_1631_1587)">
<path d="M167.069 44.5337C167.805 46.1295 168.178 47.7253 168.178 49.3212C168.178 50.917 167.888 51.9429 167.338 52.5232C166.779 53.1035 165.877 53.3937 164.624 53.3937H159.639C159.432 58.9273 159.328 68.1811 159.38 81.155H191.545C191.504 68.1603 191.359 58.9066 191.09 53.3937H183.774C183.038 51.4973 182.665 49.6839 182.665 47.9637C182.665 46.7513 182.976 45.8808 183.597 45.3419C184.229 44.8031 185.162 44.5337 186.406 44.5337H219.866C220.602 46.1295 220.975 47.7253 220.975 49.3212C220.975 50.917 220.695 51.9429 220.136 52.5232C219.576 53.1035 218.695 53.3937 217.483 53.3937H211.846C211.587 58.9273 211.473 68.0153 211.514 80.7094C211.514 104.056 211.639 118.491 211.908 124.015H219.866C220.602 125.569 220.975 127.165 220.975 128.802C220.975 130.305 220.695 131.372 220.136 131.973C219.576 132.574 218.695 132.875 217.483 132.875H183.763C183.027 130.978 182.654 129.134 182.654 127.372C182.654 126.201 182.965 125.351 183.587 124.813C184.219 124.274 185.152 124.004 186.395 124.004H191.121C191.338 119.434 191.473 108.751 191.514 91.9632H159.349C159.39 108.751 159.494 119.434 159.681 124.004H167.059C167.794 125.559 168.167 127.155 168.167 128.792C168.167 130.294 167.877 131.362 167.328 131.963C166.769 132.564 165.867 132.864 164.613 132.864H130.955C130.178 130.968 129.785 129.123 129.785 127.362C129.785 126.191 130.106 125.341 130.748 124.802C131.391 124.263 132.344 123.994 133.588 123.994H138.955C139.173 118.471 139.277 104.015 139.277 80.6265C139.235 67.9842 139.111 58.8962 138.883 53.3729H130.924C130.147 51.4766 129.753 49.6631 129.753 47.943C129.753 46.7305 130.075 45.8601 130.717 45.3212C131.36 44.7824 132.313 44.5129 133.567 44.5129H167.048L167.069 44.5337Z" fill="black"/>
<path d="M265.835 124.015C266.571 125.434 266.944 127.041 266.944 128.802C266.944 130.305 266.623 131.372 266.011 131.973C265.389 132.574 264.167 132.875 262.353 132.875H231.286C230.55 131.061 230.177 129.362 230.177 127.756C230.177 126.419 230.478 125.455 231.079 124.875C231.68 124.294 232.654 124.004 233.991 124.004H239.296C239.514 118.481 239.618 112.595 239.618 106.336C239.618 96.8026 239.545 90.471 239.39 87.3415C239.245 84.212 238.903 81.9323 238.385 80.4815C237.866 79.0307 237.068 78.1292 235.991 77.7665C234.913 77.3935 233.338 77.2173 231.265 77.2173C230.53 76.0049 230.167 74.6059 230.167 73.0101C230.167 70.5852 231.162 69.1034 233.151 68.5438C235.141 67.9842 239.172 67.7044 245.255 67.7044C249.825 67.7044 252.954 67.8702 254.602 68.2226C256.26 68.5749 257.213 69.2485 257.441 70.264C257.68 71.2795 257.804 72.6992 257.804 74.5127V106.357C257.845 112.616 257.97 118.512 258.198 124.025H265.845L265.835 124.015ZM237.929 57.0413C236.198 55.5595 235.338 53.4559 235.338 50.7305C235.338 48.0052 236.447 45.5389 238.633 43.7047C240.83 41.8705 243.96 40.9586 248.011 40.9586C252.063 40.9586 255.089 41.7462 256.809 43.3213C258.54 44.8964 259.4 46.9586 259.4 49.4974C259.4 52.2953 258.364 54.6372 256.291 56.4921C254.219 58.347 250.903 59.2693 246.322 59.2693C242.436 59.2693 239.638 58.5232 237.908 57.0413H237.929Z" fill="black"/>
<path d="M307.13 132.864C303.72 133.745 300.301 134.191 296.902 134.191C289.565 134.191 283.907 132.004 279.938 127.621C275.969 123.237 273.98 115.662 273.98 104.865C273.98 92.0047 276.995 82.4815 283.016 76.2846C289.037 70.0982 297.223 66.9998 307.575 66.9998C309.472 66.9998 310.984 67.0412 312.104 67.1241C313.233 67.207 314.446 67.3106 315.803 67.4453C315.803 65.7562 315.72 63.6423 315.544 61.1035C315.378 58.5543 315.047 56.3678 314.57 54.5336C314.093 52.6994 313.264 51.5077 312.073 50.9792C310.881 50.4404 309.347 50.1709 307.44 50.1709C306.663 48.3989 306.27 46.6373 306.27 44.8653C306.27 43.0933 306.943 41.9016 308.311 41.4042C309.679 40.9068 314.021 40.6581 321.357 40.6581C325.938 40.6581 329.067 40.8342 330.736 41.2073C332.425 41.5803 333.378 42.2539 333.616 43.2487C333.855 44.2435 333.979 45.6425 333.979 47.4559V93.3518C333.979 108.45 334.394 117.445 335.212 120.305C336.031 123.186 337.388 124.408 339.285 124.035C340.145 125.289 340.58 126.543 340.58 127.787C340.58 129.382 338.715 130.854 334.974 132.191C331.243 133.528 328.28 134.201 326.072 134.201C324.736 134.201 323.637 133.849 322.808 133.165C321.969 132.471 320.725 130.719 319.078 127.921C314.508 130.346 310.508 131.983 307.109 132.875H307.13V132.864ZM297.389 82.3467C295.472 85.1032 294.508 91.1238 294.508 100.409C294.508 108.004 295.347 113.662 297.036 117.403C298.726 121.134 301.523 123.01 305.451 123.01C307.865 123.01 309.907 122.522 311.565 121.559C313.233 120.585 314.342 119.32 314.933 117.735C315.513 116.17 315.803 112.626 315.803 107.155V80.9996C314.383 80.2224 312.819 79.5696 311.14 79.0307C309.461 78.4919 307.668 78.2224 305.772 78.2224C302.104 78.2224 299.306 79.6007 297.389 82.3571V82.3467Z" fill="black"/>
<path d="M382.932 132.864C379.522 133.745 376.113 134.191 372.704 134.191C365.367 134.191 359.709 132.004 355.74 127.621C351.771 123.237 349.782 115.662 349.782 104.865C349.782 92.0047 352.797 82.4815 358.818 76.2846C364.839 70.0982 373.025 66.9998 383.377 66.9998C385.274 66.9998 386.786 67.0412 387.906 67.1241C389.035 67.207 390.258 67.3106 391.595 67.4453C391.595 65.7562 391.512 63.6423 391.336 61.1035C391.17 58.5543 390.838 56.3678 390.362 54.5336C389.885 52.6994 389.056 51.5077 387.864 50.9792C386.673 50.4404 385.139 50.1709 383.232 50.1709C382.455 48.3989 382.061 46.6373 382.061 44.8653C382.061 43.0933 382.735 41.9016 384.103 41.4042C385.47 40.9068 389.812 40.6581 397.149 40.6581C401.719 40.6581 404.859 40.8342 406.527 41.2073C408.216 41.5803 409.17 42.2539 409.408 43.2487C409.646 44.2435 409.76 45.6425 409.76 47.4559V93.3518C409.76 108.45 410.175 117.445 410.993 120.305C411.812 123.186 413.17 124.408 415.066 124.035C415.926 125.289 416.361 126.543 416.361 127.787C416.361 129.382 414.496 130.854 410.755 132.191C407.014 133.528 404.061 134.201 401.854 134.201C400.517 134.201 399.418 133.849 398.589 133.165C397.75 132.471 396.507 130.719 394.859 127.921C390.289 130.346 386.289 131.983 382.89 132.875H382.921L382.932 132.864ZM373.191 82.3467C371.274 85.1032 370.31 91.1238 370.31 100.409C370.31 108.004 371.149 113.662 372.838 117.403C374.528 121.134 377.325 123.01 381.253 123.01C383.667 123.01 385.709 122.522 387.367 121.559C389.025 120.595 390.144 119.32 390.735 117.735C391.315 116.17 391.605 112.626 391.605 107.155V80.9996C390.185 80.2224 388.621 79.5696 386.942 79.0307C385.263 78.4919 383.47 78.2224 381.574 78.2224C377.906 78.2224 375.108 79.6007 373.191 82.3571V82.3467Z" fill="black"/>
<path d="M478.143 73.1033C482.195 77.1757 484.226 83.6213 484.226 92.4295C484.226 96.7921 483.366 99.8905 481.635 101.745C479.905 103.6 476.133 104.523 470.309 104.523H446.226C446.351 110.181 447.625 114.605 450.05 117.818C452.475 121.03 456.713 122.636 462.796 122.636C468.879 122.636 474.869 120.906 481.179 117.455C483.418 119.652 484.547 122.025 484.547 124.574C484.547 128.025 482.008 130.429 476.941 131.787C471.874 133.144 465.926 133.828 459.107 133.828C447.366 133.828 438.848 131.455 433.543 126.709C428.237 121.963 425.584 114.129 425.584 103.207C425.584 92.2844 428.579 82.9788 434.548 76.5644C440.527 70.1499 448.537 66.9479 458.599 66.9479C467.584 66.9479 474.091 68.9893 478.154 73.0618V73.0825L478.143 73.1033ZM448.693 82.0669C447.004 84.6575 446.144 89.1653 446.102 95.6004H449.532C454.32 95.6004 457.978 95.4657 460.506 95.1755C463.035 94.8958 464.506 94.4191 464.941 93.7559C465.377 93.0823 465.584 91.9735 465.584 90.4191C465.584 86.5332 464.744 83.5176 463.055 81.383C461.366 79.2483 459.024 78.1809 455.998 78.1809C452.807 78.1809 450.361 79.4762 448.682 82.0669H448.693Z" fill="black"/>
<path d="M530.733 68.9064C535.075 67.6733 538.702 67.0619 541.645 67.0619C547.728 67.0619 552.246 68.3987 555.21 71.0722C558.163 73.7457 559.645 79.1343 559.645 87.2586C559.645 108.481 560.039 119.942 560.816 121.59C561.593 123.258 563.282 124.066 565.873 124.025C566.515 125.579 566.847 127.196 566.847 128.875C566.847 130.429 566.339 131.486 565.334 132.046C564.318 132.605 562.391 132.885 559.541 132.885C552.546 132.885 548.132 132.781 546.277 132.564C544.422 132.346 543.148 131.652 542.453 130.46C541.759 129.268 541.417 127.279 541.417 124.471V101.621C541.417 92.8233 540.609 86.9166 538.992 83.9218C537.376 80.9167 534.754 79.4244 531.127 79.4244C528.06 79.4244 525.655 80.3156 523.883 82.1084C522.111 83.9011 521.231 87.642 521.231 93.3414V106.357C521.231 111.787 521.334 117.683 521.552 124.025H529.262C529.997 125.445 530.36 127.051 530.36 128.812C530.36 130.315 530.049 131.382 529.427 131.983C528.806 132.584 527.583 132.885 525.769 132.885H495.283C494.506 131.072 494.112 129.372 494.112 127.766C494.112 126.429 494.412 125.465 495.013 124.885C495.614 124.315 496.588 124.015 497.936 124.015H502.661C502.868 116.896 502.993 109.538 502.993 101.942C502.993 89.8596 502.423 82.7197 501.272 80.5125C500.122 78.3156 498.133 77.2069 495.283 77.2069C494.506 75.4763 494.112 73.7561 494.112 72.0256C494.112 70.4712 494.682 69.4556 495.832 68.979C496.982 68.5023 504.112 68.0774 517.231 67.6836C517.448 69.4971 517.448 71.9841 517.231 75.124C521.935 72.1914 526.453 70.1085 530.795 68.8857H530.764L530.733 68.9064Z" fill="black"/>
<path d="M102.064 124.647C104.821 124.647 106.8 125.072 107.981 125.911C109.173 126.75 109.764 128.491 109.764 131.123C109.764 134.315 108.707 137.6 106.593 140.957C97.5256 137.289 85.9195 135.465 71.7746 135.465H68.6658C68.4067 139.693 68.272 148.957 68.272 163.227H100.044C100.779 165.517 101.152 167.89 101.152 170.346C101.152 171.807 100.893 172.802 100.375 173.299C99.8571 173.796 98.8934 174.045 97.4634 174.045H68.272C68.3135 189.713 68.4378 199.744 68.6658 204.148H79.8677C80.6035 205.692 80.9765 207.299 80.9765 208.936C80.9765 210.439 80.6864 211.506 80.1372 212.107C79.5776 212.708 78.676 213.008 77.4222 213.008H40.5003C39.7231 211.112 39.3293 209.268 39.3293 207.506C39.3293 206.335 39.6506 205.485 40.293 204.946C40.9355 204.408 41.8889 204.138 43.1324 204.138H47.8577C48.1168 198.615 48.2515 184.159 48.2515 160.771C48.2515 148.128 48.1271 139.051 47.8577 133.517H40.4796C39.7024 131.621 39.3086 129.807 39.3086 128.087C39.3086 126.875 39.6298 126.004 40.2723 125.465C40.9148 124.927 41.8681 124.657 43.1117 124.657H102.033L102.064 124.647Z" fill="black"/>
<path d="M163.618 153.216C167.67 157.289 169.701 163.734 169.701 172.543C169.701 176.905 168.841 180.004 167.11 181.858C165.38 183.713 161.618 184.636 155.784 184.636H131.701C131.826 190.294 133.1 194.718 135.525 197.931C137.95 201.143 142.188 202.749 148.271 202.749C154.354 202.749 160.354 201.019 166.654 197.568C168.893 199.765 170.022 202.138 170.022 204.687C170.022 208.138 167.483 210.542 162.416 211.91C157.338 213.267 151.401 213.951 144.582 213.951C132.841 213.951 124.323 211.578 119.018 206.832C113.712 202.086 111.059 194.252 111.059 183.33C111.059 172.408 114.044 163.102 120.023 156.688C126.002 150.273 134.012 147.071 144.074 147.071C153.048 147.071 159.566 149.113 163.628 153.185V153.206L163.618 153.216ZM134.168 162.18C132.479 164.771 131.618 169.278 131.577 175.713H135.007C139.795 175.713 143.452 175.579 145.981 175.289C148.509 174.998 149.981 174.532 150.416 173.869C150.851 173.195 151.059 172.087 151.059 170.532C151.059 166.646 150.219 163.631 148.53 161.506C146.841 159.372 144.499 158.304 141.473 158.304C138.282 158.304 135.836 159.6 134.157 162.19L134.168 162.18Z" fill="black"/>
<path d="M232.094 153.216C236.146 157.289 238.177 163.734 238.177 172.543C238.177 176.905 237.317 180.004 235.586 181.858C233.856 183.713 230.084 184.636 224.26 184.636H200.177C200.302 190.294 201.576 194.718 204.001 197.931C206.426 201.143 210.664 202.749 216.747 202.749C222.83 202.749 228.82 201.019 235.13 197.568C237.369 199.765 238.498 202.138 238.498 204.687C238.498 208.138 235.959 210.542 230.892 211.91C225.814 213.267 219.877 213.951 213.058 213.951C201.317 213.951 192.799 211.578 187.494 206.832C182.188 202.086 179.535 194.252 179.535 183.33C179.535 172.408 182.52 163.102 188.499 156.688C194.478 150.273 202.488 147.071 212.55 147.071C221.524 147.071 228.042 149.113 232.105 153.185V153.206L232.094 153.216ZM202.644 162.18C200.955 164.771 200.095 169.278 200.053 175.713H203.483C208.271 175.713 211.929 175.579 214.457 175.289C216.986 174.998 218.457 174.532 218.892 173.869C219.327 173.195 219.535 172.087 219.535 170.532C219.535 166.646 218.695 163.631 217.006 161.506C215.317 159.372 212.975 158.304 209.949 158.304C206.758 158.304 204.312 159.6 202.633 162.19L202.644 162.18Z" fill="black"/>
<path d="M295.016 148.947C298.55 150.18 300.322 152.242 300.322 155.123C300.322 158.19 299.088 161.289 296.633 164.439C287.317 160.346 280.166 158.294 275.203 158.294C272.571 158.294 270.622 158.791 269.348 159.776C268.073 160.771 267.441 162.201 267.441 164.056C267.441 165.911 268.291 167.683 270.001 169.113C271.71 170.532 275.648 172.346 281.814 174.543C289.016 177.009 294.145 179.703 297.182 182.625C300.228 185.568 301.741 189.423 301.741 194.211C301.741 200.687 299.099 205.651 293.814 209.102C288.529 212.552 281.379 214.283 272.353 214.283C264.021 214.283 258.094 213.713 254.56 212.563C251.027 211.413 249.234 209.06 249.193 205.475C249.193 202.801 250.25 200.169 252.364 197.579C260.944 201.247 268.571 203.081 275.213 203.081C277.928 203.081 280.042 202.625 281.555 201.724C283.068 200.822 283.814 199.299 283.814 197.195C283.814 194.729 282.488 192.77 279.835 191.309C277.182 189.848 272.913 187.983 267.058 185.734C260.757 183.309 256.25 180.719 253.555 177.931C250.861 175.154 249.514 171.568 249.514 167.227C249.514 161.102 252.198 156.211 257.566 152.574C262.933 148.937 270.384 147.113 279.928 147.113C286.446 147.113 291.472 147.724 295.006 148.957H295.016V148.947Z" fill="black"/>
</g>
<path d="M328.984 221.143C328.881 221.143 328.788 221.143 328.684 221.143C324.943 221.039 322.642 219.299 321.368 217.858C319.285 215.495 319.513 211.9 321.865 209.817C324.021 207.92 327.212 207.931 329.337 209.755C331.326 209.62 339.43 207.164 365.937 183.04C384.808 165.859 407.16 143.185 428.766 121.258C490.962 58.1501 503.418 47.8393 512.091 52.3988C514.879 53.86 515.956 57.3107 514.485 60.0982C513.262 62.4298 510.661 63.5593 508.216 63.0205C506.444 63.6422 500.599 66.8857 483.242 83.2068C470.081 95.5797 453.957 111.942 436.89 129.268C380.611 186.377 345.15 221.164 328.995 221.164L328.984 221.143ZM300.301 149.486C326.311 124.574 353.191 98.8128 375.44 79.611C408.279 51.2589 416.735 49.9429 418.331 50.0776C420.963 51.518 424.299 50.6579 425.895 48.0776C427.553 45.4041 426.735 41.8912 424.051 40.2332C410.465 31.8084 379.264 58.0672 292.415 141.268C270.166 162.584 249.151 182.708 231.949 197.921C209.784 217.506 202.105 221.485 199.639 222.231C197.701 221.102 195.193 221.174 193.307 222.625C190.81 224.532 190.323 228.107 192.229 230.614C193.639 232.459 195.742 233.578 198.167 233.765C198.385 233.785 198.602 233.785 198.83 233.785C211.079 233.785 238.187 208.998 300.301 149.507V149.486ZM210.447 125.538C236.084 101.134 260.291 78.0773 279.7 60.8547C305.959 37.5493 313.948 33.4871 316.321 32.9379C318.902 33.6218 321.689 32.4094 322.902 29.912C324.28 27.0831 323.098 23.6738 320.259 22.2955C310.28 17.4459 291.586 32.5441 202.592 117.289C169.111 149.175 134.479 182.149 105.567 206.946C62.4692 243.92 52.1792 244.915 50.2517 244.563C48.0549 242.511 44.6145 242.511 42.428 244.614C40.1482 246.79 40.0757 250.397 42.2518 252.676C44.3347 254.853 46.9771 255.982 50.3346 255.982C69.8266 255.982 113.391 217.972 210.468 125.548L210.447 125.538ZM9.10192 179.496C19.8272 171.527 41.8373 151.009 67.3189 127.248C95.1942 101.258 126.779 71.8079 154.199 48.7098C195.38 13.9951 206.81 11.0729 209.804 11.4148C212.934 11.7775 215.763 9.5392 216.126 6.42007C216.488 3.29057 214.25 0.461584 211.131 0.0988937C203.784 -0.7612 190.395 3.30093 146.852 39.9948C119.215 63.2795 87.5156 92.8336 59.547 118.916C34.3141 142.439 12.5319 162.76 2.30407 170.346C-0.224398 172.221 -0.75289 175.796 1.12274 178.315C2.2419 179.817 3.96208 180.615 5.703 180.615C6.88433 180.615 8.07603 180.252 9.09156 179.496H9.10192ZM477.418 198.542C489.708 190.086 505.521 177.859 524.433 162.201C556.319 135.797 591.054 104.367 598.557 95.9424C600.65 93.5901 600.443 89.9943 598.09 87.8907C595.738 85.7974 592.132 86.0047 590.049 88.357C584.122 95.0098 553.438 123.186 520.671 150.501C465.346 196.636 452.092 200.615 449.812 200.926C447.284 199.941 444.341 200.884 442.88 203.288C441.242 205.983 442.102 209.485 444.797 211.112C446.082 211.889 447.543 212.376 449.418 212.376C454.403 212.376 462.289 208.946 477.418 198.532V198.542Z" fill="url(#paint1_linear_1631_1587)"/>
<defs>
<filter id="filter0_d_1631_1587" x="21.3086" y="27.6581" width="563.538" height="209.625" filterUnits="userSpaceOnUse" color-interpolation-filters="sRGB">
<feFlood flood-opacity="0" result="BackgroundImageFix"/>
<feColorMatrix in="SourceAlpha" type="matrix" values="0 0 0 0 0 0 0 0 0 0 0 0 0 0 0 0 0 0 127 0" result="hardAlpha"/>
<feOffset dy="5"/>
<feGaussianBlur stdDeviation="9"/>
<feComposite in2="hardAlpha" operator="out"/>
<feColorMatrix type="matrix" values="0 0 0 0 0.117647 0 0 0 0 0.192157 0 0 0 0 0.266667 0 0 0 0.2 0"/>
<feBlend mode="normal" in2="BackgroundImageFix" result="effect1_dropShadow_1631_1587"/>
<feBlend mode="normal" in="SourceGraphic" in2="effect1_dropShadow_1631_1587" result="shape"/>
</filter>
<linearGradient id="paint0_linear_1631_1587" x1="598.966" y1="118.966" x2="0.000143267" y2="118.966" gradientUnits="userSpaceOnUse">
<stop stop-color="#9085DA"/>
<stop offset="1" stop-color="#B5AEE6"/>
</linearGradient>
<linearGradient id="paint1_linear_1631_1587" x1="600" y1="110.69" x2="-1.31677e-06" y2="110.69" gradientUnits="userSpaceOnUse">
<stop stop-color="#9085DA"/>
<stop offset="1" stop-color="#B5AEE6"/>
</linearGradient>
</defs>
</svg>
