<svg width="30" height="39" viewBox="0 0 30 39" fill="none" xmlns="http://www.w3.org/2000/svg">
<path d="M15.9375 37C14.3375 37 12.8175 36.38 11.6775 35.26L7.4775 31.06C6.7875 30.38 6.3775 29.48 6.3175 28.52C6.0275 23.45 4.5675 18.43 2.0975 13.98C1.9675 13.75 1.9675 13.47 2.0975 13.24C2.2375 12.98 2.4875 12.82 2.7575 12.81C2.8475 12.81 2.9375 12.81 3.0175 12.81C4.4375 12.81 5.6675 13.55 6.6875 15.02V15.04C7.6875 16.4 8.5575 17.85 9.2875 19.35L9.7375 20.27C9.9575 20.72 10.5575 20.82 10.9075 20.47L25.0475 6.37C25.3275 6.09 25.6975 5.92 26.0875 5.91C26.1075 5.91 26.1275 5.91 26.1575 5.91C26.5275 5.91 26.8875 6.04 27.1675 6.28C27.4675 6.53 27.6575 6.89 27.7075 7.29C27.7575 7.69 27.6575 8.08 27.4275 8.41L21.7075 16.35C21.2775 16.95 21.2775 17.76 21.7075 18.35L21.7275 18.38L26.3775 24.48C27.7275 26.18 27.3075 27.73 27.0075 28.14L26.9775 28.17C24.8675 31.23 22.2775 33.85 19.2675 35.99C18.2775 36.65 17.1375 36.99 15.9475 36.99L15.9375 37Z" stroke="currentColor" stroke-width="3" stroke-miterlimit="10"/>
<path d="M11.7876 2V5.89" stroke="currentColor" stroke-width="3" stroke-linecap="round" stroke-linejoin="round"/>
<path d="M18.5176 5.29999L15.7676 8.04999" stroke="currentColor" stroke-width="3" stroke-linecap="round" stroke-linejoin="round"/>
<path d="M7.88744 8.45001L5.12744 5.70001" stroke="currentColor" stroke-width="3" stroke-linecap="round" stroke-linejoin="round"/>
</svg>
