<svg width="31" height="36" viewBox="0 0 31 36" fill="none" xmlns="http://www.w3.org/2000/svg">
<path d="M14.2903 33.7575C10.6103 32.2975 7.53026 29.8075 5.33026 26.5575C3.13026 23.3075 1.98026 19.5175 2.00026 15.5875V9.2275C2.00026 7.9975 2.75026 6.8975 3.89026 6.4375L14.4303 2.2175C15.1503 1.9275 15.9403 1.9275 16.6603 2.2175L27.2003 6.4375C28.3403 6.8975 29.0903 7.9975 29.0903 9.2275V15.5975C29.1103 21.2575 26.6903 26.6475 22.2203 30.5175C20.5703 31.9475 18.6503 33.0275 16.6103 33.8075C15.9303 34.0675 15.1803 34.0775 14.5003 33.8175L14.3103 33.7475L14.2903 33.7575Z" stroke="currentColor" stroke-width="3" stroke-linecap="round" stroke-linejoin="round"/>
<path d="M9.92017 19.4775L12.6902 22.2175L21.1302 13.8075" stroke="currentColor" stroke-width="3" stroke-linecap="round" stroke-linejoin="round"/>
</svg>
