<svg width="26" height="26" viewBox="0 0 26 26" fill="none" xmlns="http://www.w3.org/2000/svg">
<path d="M23.8049 2.33804C23.0999 1.60917 22.2587 1.02585 21.3289 0.621217C19.9023 0.0125019 18.3257 -0.153736 16.8035 0.144042C15.2813 0.441821 13.8836 1.18989 12.7915 2.29132L10.4557 4.62713C10.3842 4.70137 10.3355 4.79462 10.3155 4.89575C10.2808 4.99399 10.2808 5.10117 10.3155 5.19941C10.3512 5.29222 10.417 5.37036 10.5024 5.42131C10.5879 5.48026 10.6907 5.50903 10.7944 5.50306C12.0158 5.46747 13.2328 5.66567 14.3799 6.08701C14.4749 6.11665 14.5768 6.11665 14.6718 6.08701C14.7648 6.06356 14.8497 6.01509 14.9171 5.94687L15.7113 5.16437C16.0383 4.81802 16.4368 4.54702 16.8792 4.37019C17.3222 4.18282 17.7998 4.09128 18.2807 4.10157C18.7638 4.10509 19.2409 4.20847 19.6821 4.40523C20.1224 4.59654 20.5196 4.87458 20.8501 5.22276C21.4995 5.91862 21.8509 6.84099 21.8291 7.79259C21.8073 8.74419 21.4139 9.64948 20.7333 10.3148L17.4748 13.6784C17.0911 14.0526 16.6337 14.343 16.1317 14.531C15.6265 14.7095 15.088 14.7734 14.555 14.7178C14.0251 14.6686 13.5126 14.5028 13.0542 14.2322C12.5959 13.9617 12.203 13.5931 11.9039 13.1528C11.5354 12.9973 11.1295 12.9527 10.736 13.0244C10.352 13.1 9.99865 13.2868 9.71991 13.5616L8.55201 14.7295C8.46762 14.8147 8.41417 14.9257 8.40018 15.0448C8.39079 15.1599 8.41952 15.2748 8.48193 15.3719C9.11607 16.3187 9.94906 17.1158 10.9229 17.7077C12.3972 18.6053 14.1296 18.9837 15.844 18.7826C17.5584 18.5816 19.1562 17.8126 20.3829 16.5982L23.6647 13.3047C25.1236 11.8614 25.9561 9.90208 25.9823 7.85008C26.0085 5.79807 25.2264 3.81813 23.8049 2.33804Z" fill="#1E3144"/>
<path d="M15.4898 20.5809C15.4026 20.5255 15.301 20.4971 15.1978 20.4991C13.9767 20.5447 12.7586 20.3502 11.6123 19.9269C11.5173 19.8972 11.4154 19.8972 11.3204 19.9269C11.2273 19.9503 11.1425 19.9988 11.0751 20.067L10.2926 20.8495C9.95659 21.1852 9.56039 21.4546 9.12469 21.6437C8.67848 21.8202 8.20307 21.9113 7.72321 21.9123C7.2412 21.8994 6.76586 21.7964 6.32172 21.6086C5.88386 21.4131 5.48743 21.1356 5.15382 20.7911C4.5021 20.0948 4.14831 19.1714 4.16795 18.2179C4.18759 17.2643 4.57909 16.3562 5.25893 15.6874L8.5641 12.3822C8.9405 11.9988 9.40005 11.7071 9.90719 11.5296C10.4115 11.3471 10.9501 11.2793 11.4839 11.3311C12.016 11.3897 12.5296 11.5609 12.9905 11.8333C13.456 12.1086 13.8548 12.4835 14.1584 12.9311C14.5237 13.0984 14.9333 13.1434 15.3263 13.0596C15.712 12.9887 16.0666 12.8012 16.3423 12.5223L17.5103 11.3544C17.5946 11.2739 17.6483 11.1666 17.6621 11.0508C17.6772 10.9317 17.6481 10.8112 17.5803 10.7121C16.9534 9.75924 16.1189 8.96068 15.1394 8.37628C13.665 7.47865 11.9326 7.10023 10.2182 7.3013C8.50386 7.50237 6.90606 8.27137 5.67937 9.48579L2.35084 12.7209C1.43228 13.6111 0.748939 14.7153 0.362073 15.9346C-0.0247936 17.1539 -0.1031 18.4501 0.134173 19.707C0.371446 20.964 0.916883 22.1424 1.7216 23.1368C2.52632 24.1311 3.56517 24.9102 4.74505 25.4043C5.6878 25.8005 6.7006 26.0031 7.72321 26C8.74432 25.9995 9.75567 25.8011 10.7014 25.416C11.6496 25.0296 12.5112 24.4578 13.2357 23.7342L15.5715 21.3984C15.6446 21.33 15.6937 21.2399 15.7117 21.1415C15.7464 21.0432 15.7464 20.9361 15.7117 20.8378C15.6682 20.73 15.5901 20.6396 15.4898 20.5809Z" fill="#1E3144"/>
</svg>
