<svg width="26" height="26" viewBox="0 0 26 26" fill="none" xmlns="http://www.w3.org/2000/svg">
<path d="M24.077 0H1.91665C0.85802 0 0 0.819425 0 1.8303V23.5494C0 24.5603 0.859298 25.381 1.91665 25.381H24.077C25.1369 25.381 26 24.5603 26 23.5494V1.8303C26 0.819425 25.1369 0 24.077 0ZM7.71132 21.6274H3.85119V9.51505H7.71132V21.6274ZM5.78253 7.85749C5.18949 7.85749 4.62073 7.62754 4.20138 7.21822C3.78203 6.80889 3.54644 6.25373 3.54644 5.67486C3.54644 5.09599 3.78203 4.54082 4.20138 4.1315C4.62073 3.72217 5.18949 3.49222 5.78253 3.49222C6.37558 3.49222 6.94434 3.72217 7.36369 4.1315C7.78304 4.54082 8.01863 5.09599 8.01863 5.67486C8.01863 6.25373 7.78304 6.80889 7.36369 7.21822C6.94434 7.62754 6.37558 7.85749 5.78253 7.85749ZM22.1558 21.6249H18.2995V15.7368C18.2995 14.3324 18.2753 12.5258 16.296 12.5258C14.2893 12.5258 13.9832 14.0562 13.9832 15.6364V21.6274H10.1308V9.51505H13.828V11.1707H13.881C14.3921 10.2185 15.6533 9.21447 17.5297 9.21447C21.4345 9.21447 22.1558 11.7226 22.1558 14.9847V21.6249Z" fill="#1E3144"/>
</svg>
