<svg width="24" height="24" viewBox="0 0 24 24" fill="none" xmlns="http://www.w3.org/2000/svg">
<path fill-rule="evenodd" clip-rule="evenodd" d="M15.4958 15.134C18.0865 16.4343 19.3068 17.6247 19.7069 18.665C19.967 19.3351 19.907 19.9353 19.6469 20.4755C19.4069 20.9756 18.9867 21.4057 18.5066 21.7558C17.3363 22.6161 15.6858 23.0462 15.4858 22.9962H15.4758C13.4652 22.506 11.7047 21.7758 10.1043 20.7655C8.50385 19.7653 7.05345 18.4849 5.66306 16.8845C4.3627 15.4041 3.34242 13.8236 2.57221 12.1432C1.80199 10.4627 1.28185 8.6822 1.00177 6.79167C0.961762 6.46158 1.60194 4.66108 2.63222 3.50076C3.03233 3.05064 3.49246 2.68054 3.9926 2.49048C4.54275 2.28042 5.12291 2.28042 5.73308 2.59051C6.70335 3.09065 7.72363 4.46103 8.6839 7.2618C9.08401 8.15205 8.50385 8.77222 7.88368 9.4224C7.30352 10.0326 6.68335 10.7028 7.52358 11.663L10.9945 15.6341C11.8348 16.5944 12.565 16.0742 13.2552 15.5941C13.9854 15.074 14.6756 14.5938 15.5158 15.114L15.4958 15.134Z" stroke="#1E3144" stroke-width="2" stroke-miterlimit="10"/>
<path d="M11.9854 1C18.067 1 22.9884 5.92136 22.9884 12.003" stroke="#1E3144" stroke-width="2" stroke-linecap="round" stroke-linejoin="round"/>
<path d="M11.9854 5.00122C15.8564 5.00122 18.9873 8.13209 18.9873 12.0032" stroke="#1E3144" stroke-width="2" stroke-linecap="round" stroke-linejoin="round"/>
</svg>
