<svg width="15" height="18" viewBox="0 0 15 18" fill="none" xmlns="http://www.w3.org/2000/svg">
<path d="M6.80514 17.5842C4.76752 16.7758 3.06212 15.3971 1.84397 13.5975C0.625826 11.798 -0.010932 9.69948 0.000142016 7.52343V4.00188C0.000142016 3.32083 0.415418 2.71176 1.04664 2.45705L6.88266 0.12043C7.28133 -0.0401434 7.71875 -0.0401434 8.11741 0.12043L13.9534 2.45705C14.5847 2.71176 14.9999 3.32083 14.9999 4.00188V7.52897C15.011 10.6629 13.671 13.6474 11.196 15.7902C10.2824 16.582 9.21928 17.18 8.08973 17.6119C7.71321 17.7558 7.29794 17.7614 6.92142 17.6174L6.81621 17.5787L6.80514 17.5842Z" fill="#375B6A"/>
<path d="M4.38574 9.67745L5.9195 11.1946L10.5927 6.53796" stroke="white" stroke-width="1.5" stroke-linecap="round" stroke-linejoin="round"/>
</svg>
