<svg width="86" height="15" viewBox="0 0 86 15" fill="none" xmlns="http://www.w3.org/2000/svg">
<path d="M4.78072 11.0016C3.06546 11.0873 1.37429 10.5705 0 9.54052L1.56848 7.2307C2.46603 8.00829 3.60446 8.4523 4.79147 8.48768C5.65094 8.48768 6.02685 8.22983 6.02685 7.76786C6.02685 7.3059 5.73691 7.14475 4.81298 6.92989L2.94366 6.48942C2.19457 6.40643 1.5034 6.04624 1.0064 5.47966C0.509399 4.91308 0.242517 4.18109 0.257829 3.42757C0.257829 1.27891 1.93367 0.086404 4.43686 0.086404C5.94897 0.01791 7.44001 0.460698 8.66966 1.34337L7.09043 3.65319C6.36046 2.99304 5.42049 2.61247 4.43686 2.57886C3.63111 2.57886 3.2765 2.84744 3.2765 3.26643C3.2765 3.68542 3.65252 3.92177 4.35083 4.08292L6.2094 4.5019C8.12171 4.93164 9.04578 5.95224 9.04578 7.46705C9.05653 9.61571 7.39135 11.0016 4.78072 11.0016ZM15.9644 10.7975L19.1121 10.7975V5.14651C19.1121 3.76062 19.7783 2.90115 21.0782 2.90115C22.3782 2.90115 22.9691 3.61022 22.9691 5.14651V10.7975H26.106V4.3515C26.106 1.53675 24.7096 0.0541754 22.2924 0.0541754C21.6607 0.0223934 21.0316 0.155192 20.4666 0.439558C19.9016 0.723924 19.4202 1.15011 19.0694 1.67641V0.999592C19.0795 0.901169 19.0674 0.801723 19.0342 0.708501C19.0011 0.61528 18.9476 0.530616 18.8776 0.460656C18.8077 0.390696 18.723 0.337199 18.6298 0.304054C18.5366 0.270908 18.4371 0.258948 18.3386 0.269038L15.9859 0.269038L15.9859 10.7653L15.9644 10.7975ZM38.8477 0.301267V9.39011C38.8477 13.3329 36.2907 14.9122 33.143 14.9122C31.3908 15.0147 29.6599 14.4848 28.2655 13.4189L29.8985 10.9801C30.765 11.8115 31.9206 12.2738 33.1215 12.2693C33.4564 12.2989 33.794 12.2563 34.1111 12.1445C34.4282 12.0327 34.7175 11.8542 34.9598 11.6211C35.2021 11.3879 35.3917 11.1056 35.5156 10.793C35.6396 10.4804 35.6952 10.1449 35.6785 9.8091V9.13227C35.2886 9.59977 34.7928 9.96745 34.2322 10.2048C33.6717 10.4421 33.0625 10.5421 32.4555 10.4967C31.1377 10.4354 29.8981 9.85316 29.0096 8.87801C28.1211 7.90287 27.6563 6.61472 27.7175 5.29691C27.6857 4.64353 27.7832 3.99028 28.0042 3.37459C28.2252 2.7589 28.5655 2.19286 29.0056 1.70887C29.4457 1.22487 29.9769 0.832435 30.5689 0.55403C31.1608 0.275626 31.802 0.116714 32.4555 0.086404C33.0838 0.0457056 33.7117 0.170045 34.2771 0.447082C34.8425 0.72412 35.3257 1.14422 35.6785 1.66567V1.03182C35.6701 0.932839 35.6837 0.833227 35.7181 0.740058C35.7526 0.646889 35.8071 0.562446 35.8778 0.492721C35.9486 0.422995 36.0336 0.369697 36.1273 0.33661C36.2209 0.303524 36.3209 0.291453 36.4197 0.301267L38.8477 0.301267ZM35.8073 5.29691C35.8147 4.97372 35.7564 4.65239 35.6357 4.35245C35.5151 4.05251 35.3348 3.78023 35.1057 3.55214C34.8766 3.32405 34.6035 3.14491 34.3031 3.02562C34.0026 2.90632 33.6809 2.84936 33.3578 2.85818C33.0404 2.85955 32.7265 2.92395 32.4343 3.04767C32.142 3.17138 31.8774 3.35194 31.6555 3.57883C31.4336 3.80573 31.2589 4.07444 31.1417 4.36938C31.0245 4.66432 30.9671 4.9796 30.9728 5.29691C30.9671 5.61372 31.0247 5.92848 31.142 6.22282C31.2593 6.51717 31.434 6.78517 31.656 7.01121C31.8781 7.23725 32.1428 7.41679 32.435 7.53933C32.7272 7.66186 33.0409 7.72495 33.3578 7.7249C33.6804 7.73521 34.0018 7.67961 34.3023 7.56152C34.6027 7.44343 34.8759 7.26533 35.1051 7.03808C35.3344 6.81083 35.515 6.53921 35.6357 6.23984C35.7565 5.94047 35.8147 5.61963 35.8073 5.29691ZM52.5885 5.54401C52.5885 8.767 50.386 11.0016 47.6679 11.0016C47.0392 11.0424 46.4094 10.941 45.8254 10.7047C45.2413 10.4685 44.7182 10.1036 44.2947 9.6372V14.6543H41.1467V0.354987L43.5639 0.354987C43.6623 0.344896 43.7618 0.356857 43.8551 0.390002C43.9483 0.423147 44.033 0.476644 44.1029 0.546604C44.1729 0.616564 44.2264 0.701229 44.2595 0.79445C44.2927 0.887671 44.3047 0.987101 44.2947 1.08552V1.71939C44.6826 1.19783 45.1936 0.780568 45.7823 0.504966C46.3711 0.229364 47.0189 0.104018 47.6679 0.140124C50.3645 0.0864073 52.5885 2.31027 52.5885 5.54401ZM49.3655 5.54401C49.3831 5.19572 49.3293 4.84751 49.2073 4.52081C49.0854 4.1941 48.8977 3.89579 48.6562 3.64422C48.4147 3.39266 48.1242 3.19316 47.8028 3.05798C47.4813 2.9228 47.1356 2.8548 46.7869 2.85818C46.4341 2.85061 46.0836 2.91524 45.7566 3.04809C45.4297 3.18095 45.1334 3.37922 44.8858 3.63075C44.6383 3.88227 44.445 4.18173 44.3175 4.51074C44.1899 4.83975 44.1308 5.19138 44.1441 5.54401C44.1308 5.89663 44.1899 6.24824 44.3175 6.57726C44.445 6.90627 44.6383 7.20574 44.8858 7.45726C45.1334 7.70879 45.4297 7.90707 45.7566 8.03992C46.0836 8.17278 46.4341 8.2374 46.7869 8.22983C47.1396 8.2408 47.4909 8.17832 47.8182 8.04636C48.1455 7.91441 48.4418 7.71586 48.6882 7.46331C48.9347 7.21077 49.1261 6.90973 49.2501 6.57932C49.374 6.24892 49.428 5.89636 49.4085 5.54401H49.3655ZM65.4052 0.354987V10.8512H62.1822V9.4868C61.7924 10.0057 61.2806 10.4203 60.6921 10.6939C60.1036 10.9676 59.4568 11.0917 58.8089 11.0553C56.0908 11.0553 53.8884 8.83146 53.8884 5.59773C53.8884 2.36399 56.0371 0.140124 58.8089 0.140124C59.4579 0.104018 60.1055 0.229364 60.6942 0.504966C61.2829 0.780568 61.7942 1.19783 62.1822 1.71939V1.08552C62.1738 0.986543 62.1873 0.886947 62.2218 0.793778C62.2562 0.700609 62.3107 0.616166 62.3815 0.54644C62.4523 0.476715 62.5375 0.423417 62.6312 0.39033C62.7249 0.357243 62.8245 0.345173 62.9234 0.354987L65.4052 0.354987ZM62.3647 5.59773C62.378 5.2451 62.3192 4.89347 62.1916 4.56446C62.064 4.23545 61.8705 3.93599 61.623 3.68447C61.3755 3.43294 61.0791 3.23467 60.7522 3.10181C60.4253 2.96896 60.0747 2.90433 59.7219 2.9119C59.3736 2.90844 59.0286 2.97645 58.7076 3.11175C58.3867 3.24704 58.0969 3.44673 57.8562 3.69847C57.6156 3.95021 57.4291 4.24865 57.3083 4.57533C57.1876 4.90201 57.1352 5.24998 57.1544 5.59773C57.1352 5.94547 57.1876 6.29345 57.3083 6.62012C57.4291 6.9468 57.6156 7.24523 57.8562 7.49697C58.0969 7.74871 58.3867 7.94841 58.7076 8.08371C59.0286 8.219 59.3736 8.28702 59.7219 8.28355C60.0768 8.2871 60.4287 8.21765 60.7556 8.07954C61.0825 7.94143 61.3774 7.73761 61.6222 7.48071C61.867 7.22381 62.0563 6.91932 62.1785 6.58616C62.3007 6.253 62.3531 5.89827 62.3325 5.54401L62.3647 5.59773ZM71.7759 11.0553C74.4402 11.0553 76.0732 9.66944 76.0732 7.51003C76.0732 5.99523 75.1494 4.97461 73.2371 4.55562L71.3785 4.12588C70.6587 3.96473 70.3042 3.72839 70.3042 3.3094C70.3042 2.89041 70.6693 2.62183 71.4643 2.62183C72.4479 2.65544 73.3881 3.03601 74.1181 3.69616L75.6973 1.38635C74.4677 0.503681 72.9764 0.060876 71.4643 0.12937C68.9718 0.12937 67.296 1.36485 67.296 3.47054C67.2779 4.22305 67.5427 4.95499 68.038 5.52184C68.5332 6.0887 69.2229 6.44927 69.9711 6.53239L71.8404 6.97287C72.7643 7.18773 73.0545 7.45632 73.0545 7.81084C73.0545 8.16537 72.6783 8.53064 71.8189 8.53064C70.6319 8.49526 69.4934 8.05128 68.5959 7.27368L67.0274 9.58348C68.39 10.5838 70.0553 11.0846 71.7436 11.0016L71.7759 11.0553ZM81.7027 11.0553C84.367 11.0553 86 9.66944 86 7.51003C86 5.99523 85.0762 4.97461 83.1746 4.55562L81.3053 4.12588C80.5963 3.96473 80.231 3.72839 80.231 3.3094C80.231 2.89041 80.5856 2.62183 81.3806 2.62183C82.3676 2.65477 83.3111 3.03526 84.0449 3.69616L85.6134 1.38635C84.3856 0.499835 82.8932 0.0566231 81.3806 0.12937C78.8881 0.12937 77.212 1.36485 77.212 3.47054C77.1943 4.22471 77.4605 4.95804 77.958 5.52515C78.4555 6.09227 79.1478 6.45177 79.8979 6.53239L81.7564 6.97287C82.6804 7.18773 82.9706 7.45632 82.9706 7.81084C82.9706 8.16537 82.5944 8.53064 81.7349 8.53064C80.5479 8.49526 79.4095 8.05128 78.5119 7.27368L76.9435 9.58348C78.3085 10.587 79.9784 11.088 81.6704 11.0016L81.7027 11.0553Z" fill="#F4333D"/>
<path d="M12.1514 3.65303C12.3924 3.6574 12.6321 3.61314 12.8556 3.5229C13.0792 3.43267 13.2821 3.2983 13.4526 3.12783C13.6231 2.95736 13.7574 2.75428 13.8476 2.53072C13.9378 2.30716 13.9821 2.0677 13.9777 1.82665C13.9821 1.58561 13.9378 1.34617 13.8476 1.12261C13.7574 0.899049 13.6231 0.695965 13.4526 0.525493C13.2821 0.355021 13.0792 0.220658 12.8556 0.130422C12.6321 0.0401864 12.3924 -0.00407565 12.1514 0.000294813C11.9112 -0.00262049 11.6731 0.0427157 11.4508 0.133603C11.2285 0.224489 11.0266 0.359072 10.8573 0.529395C10.6879 0.699718 10.5545 0.902313 10.4649 1.12515C10.3753 1.34799 10.3315 1.58653 10.3358 1.82665C10.3315 2.06678 10.3753 2.30534 10.4649 2.52818C10.5545 2.75101 10.6879 2.95359 10.8573 3.12391C11.0266 3.29424 11.2285 3.42884 11.4508 3.51972C11.6731 3.61061 11.9112 3.65595 12.1514 3.65303ZM10.1855 10.7973H14.1175L13.2795 4.26539C12.5399 4.45881 11.7629 4.45881 11.0233 4.26539L10.1855 10.7973Z" fill="black"/>
</svg>
