<svg width="16" height="14" viewBox="0 0 16 14" fill="none" xmlns="http://www.w3.org/2000/svg">
<path d="M11.6111 9.20381C12.2403 8.56841 12.5933 7.71031 12.5933 6.8162C12.5933 5.92209 12.2403 5.064 11.6111 4.4286C11.4931 4.30256 11.3102 4.26134 11.1501 4.32483C10.9894 4.38832 10.8838 4.54279 10.8838 4.71526V8.91856C10.8847 9.09056 10.9904 9.24503 11.151 9.30757C11.3112 9.37012 11.4936 9.3289 11.6116 9.20333L11.6111 9.20381ZM12.0811 12.9811C13.6514 12.2453 14.8814 10.938 15.5206 9.32605C16.1598 7.7141 16.1598 5.91925 15.5206 4.3073C14.8814 2.69535 13.6514 1.38806 12.0811 0.652214C11.8054 0.525702 11.4832 0.555553 11.2354 0.730869C10.9875 0.906184 10.8525 1.20043 10.8809 1.50273C10.9089 1.80503 11.0961 2.06895 11.3718 2.19546C12.5445 2.75126 13.4619 3.7316 13.9381 4.93843C14.4147 6.14527 14.4147 7.48809 13.9381 8.69492C13.4614 9.90175 12.5441 10.8826 11.3718 11.4379C11.0961 11.5644 10.9089 11.8288 10.8809 12.1311C10.8525 12.4334 10.9875 12.7272 11.2354 12.903C11.4827 13.0783 11.8054 13.1086 12.0811 12.9821V12.9811Z" fill="white"/>
<path d="M0.710737 3.10913H3.98534V10.525H0.710737C0.31841 10.525 0 10.2066 0 9.81423V3.81987C0 3.42754 0.31841 3.10913 0.710737 3.10913Z" fill="white"/>
<path d="M8.20462 13.4854L4.93286 10.5254V3.10909L8.20794 0.182273C8.66565 -0.227111 9.3925 0.0979325 9.3925 0.71201V12.958C9.3925 13.5745 8.66186 13.8986 8.2051 13.4849L8.20462 13.4854Z" fill="white"/>
</svg>
