<svg width="26" height="26" viewBox="0 0 26 26" fill="none" xmlns="http://www.w3.org/2000/svg">
<path d="M13 0C10.4288 0 7.91543 0.762437 5.77759 2.1909C3.63975 3.61935 1.97351 5.64968 0.989572 8.02512C0.0056327 10.4006 -0.251811 13.0144 0.249797 15.5362C0.751405 18.0579 1.98954 20.3743 3.80762 22.1924C5.6257 24.0105 7.94208 25.2486 10.4638 25.7502C12.9856 26.2518 15.5995 25.9944 17.9749 25.0104C20.3503 24.0265 22.3807 22.3603 23.8091 20.2224C25.2376 18.0846 26 15.5712 26 13C26 9.55219 24.6304 6.24558 22.1924 3.80761C19.7544 1.36964 16.4478 0 13 0ZM17.51 19.35C17.4617 19.4719 17.3865 19.5813 17.29 19.67C17.1907 19.7605 17.0754 19.8318 16.95 19.88C16.8246 19.9223 16.692 19.9393 16.56 19.93C16.4279 19.9099 16.2997 19.8694 16.18 19.81L12.54 17L10.23 19.11C10.1758 19.1461 10.1144 19.17 10.05 19.18C9.98422 19.1954 9.91579 19.1954 9.85001 19.18L10.29 15.26L10.35 15.31V15.21L17.12 9.14C17.38 8.9 17.3 8.84 17.3 8.84C17.3 8.54 16.82 8.84 16.82 8.84L8.20001 14.3L4.62001 13.07C4.62001 13.07 4.07001 12.88 4.00001 12.46C3.93001 12.04 4.62001 11.81 4.62001 11.81L18.84 6.23C18.84 6.23 20 5.71 20 6.56L17.51 19.35Z" fill="#1E3144"/>
</svg>
