<svg width="26" height="22" viewBox="0 0 26 22" fill="none" xmlns="http://www.w3.org/2000/svg">
<path d="M26 2.49188C25.0264 2.92207 23.9935 3.2041 22.9357 3.32855C24.0477 2.66354 24.8793 1.61874 25.2759 0.388547C24.2314 1.0088 23.0882 1.44681 21.8957 1.68371C21.397 1.15234 20.7941 0.728706 20.1243 0.439076C19.4545 0.149446 18.7322 -7.40469e-07 18.002 0C16.5883 0 15.2326 0.559458 14.2329 1.5553C13.2333 2.55115 12.6717 3.90181 12.6717 5.31015C12.671 5.71773 12.7172 6.12405 12.8095 6.52112C10.6884 6.41549 8.61319 5.86657 6.71881 4.91001C4.82442 3.95345 3.15317 2.61064 1.81359 0.968776C1.33948 1.77991 1.09046 2.70206 1.09205 3.64069C1.09104 4.51468 1.30658 5.37541 1.71956 6.14651C2.13254 6.91762 2.73018 7.57525 3.45947 8.06106C2.61108 8.03628 1.781 7.80934 1.03875 7.39924C1.03875 7.42126 1.03875 7.44327 1.03875 7.46658C1.03969 8.6951 1.46755 9.88539 2.24963 10.8352C3.03172 11.7851 4.11979 12.4359 5.32897 12.677C4.87093 12.8012 4.3983 12.864 3.9236 12.8635C3.58682 12.8631 3.25082 12.8315 2.91995 12.769C3.26058 13.8249 3.9241 14.7483 4.81762 15.4099C5.71115 16.0716 6.78997 16.4383 7.90309 16.4589C6.0123 17.9378 3.67671 18.7394 1.27276 18.7345C0.847394 18.7343 0.422405 18.7093 0 18.6593C2.43918 20.2209 5.278 21.05 8.17741 21.0476C17.989 21.0476 23.3544 12.949 23.3544 5.92664C23.3544 5.6961 23.3544 5.46686 23.3401 5.23891C24.3835 4.4879 25.2842 3.55768 26 2.49188Z" fill="#1E3144"/>
</svg>
