<svg width="26" height="25" viewBox="0 0 26 25" fill="none" xmlns="http://www.w3.org/2000/svg">
<path d="M14.2309 0.0223269C7.35453 -0.387523 1.41171 4.89499 1.02463 11.7714C0.888008 14.0255 1.36617 16.2569 2.39079 18.2379L0 24.6361L6.99022 23.1789C8.72069 24.249 10.7016 24.8638 12.7737 24.9776C19.65 25.3875 25.5929 20.105 25.9799 13.2286C26.367 6.35223 21.1073 0.432177 14.2309 0.0223269ZM12.8647 22.9512C10.8155 22.8373 8.94839 22.1315 7.3773 21.0158L7.21791 21.0385L3.16495 21.881L4.59942 18.0557C3.48372 16.2797 2.89172 14.1394 3.02833 11.8852C3.36988 6.12454 8.31085 1.70727 14.0943 2.04881C19.855 2.39035 24.2722 7.33132 23.9307 13.1148C23.5891 18.8754 18.6482 23.2927 12.8647 22.9512Z" fill="#1E3144"/>
<path d="M11.6143 9.31237C11.6143 9.31237 11.9558 9.90437 11.546 10.337C11.1589 10.7696 10.8174 11.0884 10.8174 11.0884C10.8174 11.0884 10.4758 11.3161 10.7718 11.7942C11.0678 12.2952 12.2974 14.4355 14.5516 15.4829C14.5516 15.4829 15.2574 15.8244 15.599 15.1641L16.3959 14.2533C16.3959 14.2533 16.578 14.0256 17.1245 14.2989C17.671 14.5721 19.4015 15.5512 19.4015 15.5512C19.4015 15.5512 19.7202 15.6878 19.6292 16.1432C19.5381 16.6214 19.2648 18.4429 16.6919 18.4885C16.6919 18.4885 14.21 18.4201 11.5688 16.1204C9.9066 14.686 8.7909 12.9327 8.17612 11.7259C8.13058 11.6349 8.10782 11.5665 8.06228 11.4982C7.7435 10.7696 7.53858 9.97268 7.60689 9.22129C7.60689 9.13021 7.62966 9.03913 7.62966 8.94806C7.74351 8.12836 8.13058 7.14927 9.42844 6.64834C9.42844 6.64834 10.4531 6.55727 10.6125 6.71665L11.6143 9.31237Z" fill="#1E3144"/>
</svg>
