<svg width="50" height="48" viewBox="0 0 50 48" fill="none" xmlns="http://www.w3.org/2000/svg">
<path d="M35.4744 47.8341L35.3007 47.7846C34.3673 47.5146 33.4024 47.2446 32.461 46.8846C32.1288 46.7568 31.7922 46.6451 31.4358 46.5245C31.0794 46.4039 30.7301 46.2896 30.3755 46.1546C29.4115 45.7892 28.4665 45.4013 27.669 45.07C27.2667 44.9026 26.868 44.7235 26.4818 44.5507C26.2586 44.4508 26.0318 44.3509 25.8113 44.2528C25.6241 44.1709 25.435 44.0908 25.2469 44.0116C24.9337 43.8792 24.6106 43.7415 24.2911 43.5948C23.931 43.4283 23.571 43.2519 23.229 43.0818C23.0274 42.9819 22.8257 42.882 22.6241 42.7848L21.7241 42.3545C21.3676 42.1847 21.0118 42.014 20.6566 41.8424C20.1075 41.5724 19.5612 41.3023 19.0365 41.0404L18.9753 41.0089C18.4352 40.7389 17.8736 40.4608 17.3245 40.1791C17.1283 40.0792 16.9375 39.9747 16.7521 39.873C16.6207 39.801 16.4884 39.729 16.3561 39.6588C16.0428 39.4941 15.726 39.3312 15.4155 39.1674L14.7593 38.8254L13.3525 38.0882L12.8683 37.8326C12.367 37.5698 11.8485 37.2979 11.3382 37.0225C11.0682 36.8776 10.8035 36.7273 10.5452 36.5824C10.3202 36.4546 10.0952 36.3277 9.86746 36.2044C9.50743 36.0093 9.14741 35.8161 8.78738 35.6247C8.44355 35.4384 8.09793 35.2521 7.7478 35.0631C7.43008 34.8903 7.11775 34.7147 6.79913 34.5383C6.58851 34.4204 6.377 34.3025 6.16908 34.1864L5.35902 33.7364C5.02359 33.5528 4.68877 33.3688 4.35454 33.1846C3.95491 32.9632 3.55558 32.7409 3.15655 32.5177L1.85595 31.7976C1.63274 31.6743 1.40592 31.5546 1.1827 31.4376L0.807373 31.236C0.756969 31.209 0.707465 31.1802 0.652561 31.146L0.24213 30.9093C0.183995 30.8756 0.13348 30.8303 0.0937841 30.7761C0.0540884 30.7219 0.0260769 30.66 0.0115238 30.5945C-0.00302933 30.5289 -0.00380703 30.461 0.00923997 30.3951C0.022287 30.3292 0.0488743 30.2668 0.0873183 30.2117L0.322236 29.8868C1.05309 28.8739 1.75484 27.9021 2.4275 26.9715C9.15101 17.6044 13.2121 11.9538 21.1282 6.44989C27.2838 2.17007 33.6743 3.3233e-06 40.1197 3.3233e-06C42.5575 -0.00114454 44.9865 0.295065 47.3526 0.88207C48.115 1.07198 48.0817 0.989178 48.178 1.82714C48.2122 2.12506 48.2383 2.42299 48.268 2.72091L48.2932 2.95313C48.334 3.33776 48.3754 3.72179 48.4174 4.10522L48.4534 4.44634C48.4831 4.72626 48.5128 5.00618 48.5434 5.28611C48.5821 5.61373 48.6235 5.94135 48.6649 6.26898L48.7621 7.05024C48.8197 7.50837 48.8764 7.96651 48.9367 8.42464C48.9772 8.73157 49.0204 9.03849 49.0645 9.34541C49.0861 9.49572 49.1068 9.64514 49.1284 9.79545C49.1428 9.89716 49.1707 10.1159 49.1996 10.3355C49.2284 10.5551 49.2545 10.7612 49.2698 10.8755L49.5929 13.2085L47.8584 11.6145C44.6362 8.64746 40.4153 7.00195 36.0351 7.00524C26.3918 7.00524 18.5459 14.8502 18.5459 24.4945C18.5459 34.1387 26.3918 41.9837 36.0351 41.9837C37.1204 41.9835 38.2032 41.8832 39.27 41.684L41.5202 41.2627L40.0801 43.0467C39.81 43.3815 39.4716 43.7955 39.1161 44.2312C38.4653 45.0295 37.7273 45.9341 37.2754 46.5164C37.0801 46.773 36.9001 47.0331 36.7021 47.313L36.6202 47.4291C36.0396 48.1789 36.3484 48.0466 35.4744 47.8341Z" fill="#1DC8BE"/>
</svg>
